<svg width="60" height="60" viewBox="0 0 60 60" fill="none" xmlns="http://www.w3.org/2000/svg">
<rect width="60" height="60" rx="30" fill="#CE5C39"/>
<path opacity="0.8" d="M41.5462 35.2616C41.5462 39.6035 37.9648 43.1296 33.5537 43.1296H18.4537V37.8751H33.5537C35.0056 37.8751 36.181 36.6997 36.181 35.2478C36.181 33.7959 35.0056 32.6205 33.5537 32.6205H28.23V27.3797H33.5537C35.0056 27.3797 36.181 26.2044 36.181 24.7525C36.181 23.3005 35.0056 22.1252 33.5537 22.1252H18.4537V16.8706H33.5537C37.9648 16.8844 41.5462 20.4105 41.5462 24.7525C41.5462 26.7022 40.8271 28.5689 39.5135 30.007C40.8271 31.4451 41.5462 33.3257 41.5462 35.2616Z" fill="white"/>
<path opacity="0.12" d="M18.4537 37.8751H31.4242C28.6725 41.0555 24.2891 43.1296 19.3525 43.1296C19.0483 43.1296 18.7579 43.1158 18.4676 43.102C18.4537 43.1158 18.4537 37.8751 18.4537 37.8751ZM34.1345 32.6205H29.115V27.3797H34.1345C34.5355 29.1082 34.5355 30.9058 34.1345 32.6205ZM31.4242 22.1252H18.4537V16.8983C18.7441 16.8844 19.0483 16.8706 19.3387 16.8706C24.2752 16.8844 28.6587 18.9448 31.4242 22.1252Z" fill="black"/>
<path d="M18.4537 16.8833C25.8101 16.8833 31.7699 22.7601 31.7699 30.0059C31.7699 37.2517 25.8101 43.1285 18.4537 43.1285V37.8739C22.8648 37.8739 26.4462 34.3478 26.4462 30.0059C26.4462 25.664 22.8648 22.1379 18.4537 22.1379V16.8833Z" fill="white"/>
</svg>
