<svg width="61" height="60" viewBox="0 0 61 60" fill="none" xmlns="http://www.w3.org/2000/svg">
<rect x="0.333313" width="60" height="60" rx="30" fill="#FF7294"/>
<path d="M26.4412 30C26.4412 27.8493 28.1837 26.1054 30.3338 26.1054C32.4838 26.1054 34.2273 27.8493 34.2273 30C34.2273 32.1507 32.4838 33.8946 30.3338 33.8946C28.1837 33.8946 26.4412 32.1507 26.4412 30ZM24.3365 30C24.3365 33.3133 27.0215 35.999 30.3338 35.999C33.6461 35.999 36.3311 33.3133 36.3311 30C36.3311 26.6867 33.6461 24.001 30.3338 24.001C27.0215 24.001 24.3365 26.6867 24.3365 30ZM35.1669 23.7631C35.1668 24.0404 35.2489 24.3115 35.4028 24.5421C35.5567 24.7727 35.7756 24.9525 36.0316 25.0587C36.2877 25.1649 36.5695 25.1928 36.8414 25.1388C37.1132 25.0848 37.363 24.9514 37.5591 24.7554C37.7552 24.5594 37.8888 24.3097 37.943 24.0377C37.9972 23.7658 37.9695 23.4839 37.8635 23.2277C37.7576 22.9715 37.578 22.7525 37.3476 22.5983C37.1172 22.4442 36.8462 22.3619 36.569 22.3617H36.5685C36.1969 22.3619 35.8406 22.5096 35.5778 22.7724C35.315 23.0351 35.1673 23.3915 35.1669 23.7631V23.7631ZM25.6153 39.5096C24.4766 39.4577 23.8576 39.268 23.4463 39.1077C22.9011 38.8953 22.512 38.6424 22.1029 38.2338C21.6939 37.8252 21.4406 37.4364 21.2293 36.8909C21.069 36.4797 20.8793 35.8604 20.8275 34.7214C20.7709 33.4899 20.7596 33.12 20.7596 30.0001C20.7596 26.8802 20.7718 26.5113 20.8275 25.2788C20.8794 24.1398 21.0705 23.5217 21.2293 23.1093C21.4416 22.5638 21.6944 22.1746 22.1029 21.7655C22.5114 21.3563 22.9001 21.103 23.4463 20.8916C23.8575 20.7312 24.4766 20.5415 25.6153 20.4897C26.8464 20.433 27.2162 20.4217 30.3338 20.4217C33.4514 20.4217 33.8216 20.434 35.0537 20.4897C36.1924 20.5416 36.8103 20.7327 37.2226 20.8916C37.7679 21.103 38.157 21.3568 38.566 21.7655C38.9751 22.1741 39.2274 22.5638 39.4397 23.1093C39.6 23.5205 39.7897 24.1398 39.8414 25.2788C39.8981 26.5113 39.9094 26.8802 39.9094 30.0001C39.9094 33.12 39.8981 33.4889 39.8414 34.7214C39.7896 35.8604 39.599 36.4795 39.4397 36.8909C39.2274 37.4364 38.9745 37.8255 38.566 38.2338C38.1575 38.642 37.7679 38.8953 37.2226 39.1077C36.8115 39.2681 36.1924 39.4578 35.0537 39.5096C33.8226 39.5662 33.4528 39.5775 30.3338 39.5775C27.2148 39.5775 26.846 39.5662 25.6153 39.5096V39.5096ZM25.5186 18.3879C24.2752 18.4445 23.4256 18.6417 22.6836 18.9305C21.9152 19.2288 21.2647 19.6289 20.6147 20.2781C19.9646 20.9273 19.5657 21.579 19.2675 22.3476C18.9788 23.0903 18.7816 23.9397 18.725 25.1834C18.6675 26.4291 18.6543 26.8273 18.6543 30C18.6543 33.1727 18.6675 33.5709 18.725 34.8166C18.7816 36.0604 18.9788 36.9097 19.2675 37.6524C19.5657 38.4205 19.9647 39.073 20.6147 39.7219C21.2646 40.3708 21.9152 40.7704 22.6836 41.0695C23.427 41.3583 24.2752 41.5555 25.5186 41.6121C26.7645 41.6687 27.162 41.6829 30.3338 41.6829C33.5056 41.6829 33.9037 41.6697 35.149 41.6121C36.3924 41.5555 37.2415 41.3583 37.9839 41.0695C38.7519 40.7704 39.4029 40.3711 40.0529 39.7219C40.7029 39.0727 41.1011 38.4205 41.4 37.6524C41.6888 36.9097 41.8868 36.0603 41.9425 34.8166C41.9992 33.57 42.0123 33.1727 42.0123 30C42.0123 26.8273 41.9992 26.4291 41.9425 25.1834C41.8859 23.9396 41.6888 23.0898 41.4 22.3476C41.1011 21.5795 40.7019 20.9283 40.0529 20.2781C39.4039 19.6279 38.7519 19.2288 37.9849 18.9305C37.2415 18.6417 36.3923 18.4436 35.1499 18.3879C33.9046 18.3313 33.5065 18.3171 30.3347 18.3171C27.1629 18.3171 26.7645 18.3303 25.5186 18.3879Z" fill="white"/>
</svg>
