<svg width="167" height="167" viewBox="0 0 167 167" fill="none" xmlns="http://www.w3.org/2000/svg">
<path d="M83.5 165.5C128.787 165.5 165.5 128.787 165.5 83.5C165.5 38.2127 128.787 1.5 83.5 1.5C38.2127 1.5 1.5 38.2127 1.5 83.5C1.5 128.787 38.2127 165.5 83.5 165.5Z" fill="#3D8130" stroke="#1B3416" stroke-width="3"/>
<circle cx="83.5" cy="83.5" r="79.5" stroke="#10220D" stroke-width="2"/>
<path d="M114.161 109.727L114.128 109.694L114.161 109.727Z" fill="#3D8130"/>
<path d="M50.8284 66.8339L47.2121 73.8776L43.4702 81.2673L40.8287 88.1853L39.0678 95.5435L37.9672 103.593L37.3069 110.543L36.5522 115.102L37.3069 118.656L38.5961 121.706L40.986 125.92L46.5203 129.379L50.6082 130.982C51.6145 131.297 52.6836 131.611 53.5955 131.894L58.4381 132.775L65.3561 133.089H71.0791C71.7395 133.089 77.5254 132.775 77.5569 132.743L84.9151 132.869L92.0217 131.989L95.1033 130.699L97.2102 128.184L97.3045 124.851C97.1787 124.567 96.7699 123.498 96.6442 123.09C96.5498 122.807 95.1348 121.14 93.8455 119.693L93.8141 119.662C93.2481 118.844 92.3362 117.429 92.3362 116.958C92.3362 116.486 92.9022 115.102 93.028 114.851L93.0908 114.725L96.0467 113.876L97.9963 115.291L99.7573 114.316L101.738 112.335L105.197 109.788L108.342 107.996L110.826 107.524L114.096 109.757L113.876 109.505L115.228 108.31L116.486 106.235V104.065L116.235 103.436L114.631 104.726L111.769 105.543H111.706L107.304 105.449L100.921 106.109L98.9082 106.329L97.3674 106.109L93.2481 105.543L88.5942 104.663L81.0787 103.436H81.0473L73.8463 100.449L67.5258 96.8013L63.658 94.1913L63.2807 92.336L63.7838 90.6066L65.3246 89.4745L68.9094 90.2921L76.7393 92.7134C80.5756 93.4995 86.4244 94.663 86.8018 94.6944C86.9905 94.6944 87.7451 94.8202 89.6319 95.1347C91.6444 95.4491 94.4116 95.9208 94.9776 95.9208C95.9524 95.9208 103.468 96.3296 103.908 96.361C104.317 96.361 110.417 96.2353 111.078 96.2353C111.518 96.2353 113.876 95.4491 115.291 94.946L117.43 92.3989L119.473 88.8456C119.599 87.8079 119.473 86.7702 119.096 85.7954C118.593 84.4747 117.65 83.3427 116.455 82.588C115.826 83.7829 115.008 84.5376 114.065 84.8835C113.719 85.0093 113.31 85.0722 112.933 85.0722C112.367 85.0722 111.801 84.9464 111.329 84.6948L111.644 84.1288C112.335 84.4747 113.122 84.5376 113.876 84.286C114.725 83.9716 115.448 83.2169 116.014 82.0534C115.323 82.305 114.568 82.4622 113.813 82.4622C113.342 82.4622 112.87 82.4308 112.398 82.305L112.461 81.9905L112.524 81.6761C112.555 81.6761 114.977 82.2735 116.801 80.8585C118.09 79.8837 118.813 78.1228 118.939 75.7015L116.832 78.1857L114.285 79.3491C113.153 79.6321 109.38 80.5755 109.034 80.5755C108.908 80.5755 108.405 80.5126 107.178 80.2925C105.638 80.0409 103.342 79.695 102.745 79.695C101.675 79.695 100.166 78.5315 100.009 78.4058L99.8201 78.28L101.015 74.7896L104.317 71.0476L107.807 68.5634H112.147L116.235 69.0036L117.996 71.0161L118.845 72.2739V68.8778L115.448 67.6515C115.071 67.5886 111.706 67.1169 110.889 67.1169C110.103 67.1169 107.084 67.5886 106.581 67.6515L102.21 70.4815L101.864 69.947L106.329 67.054H106.392C106.549 67.0226 109.946 66.488 110.857 66.488C111.738 66.488 115.386 67.0226 115.543 67.054L115.606 67.0855L119.285 68.4376L119.631 68.6263L119.662 68.3747L117.933 66.8653L114.82 65.356L111.046 65.0415L106.707 65.7962L104.977 66.5509L104.726 65.9534L106.549 65.1673L111.015 64.3812L114.977 64.7271L115.134 64.8214L113.939 62.9661L110.574 60.0103L110.606 59.9788L97.5246 60.3562C97.5246 60.3562 95.8266 60.5763 93.877 60.8278L95.7323 63.5007L96.6756 65.1673L96.2039 66.8339L95.575 66.6452L95.9838 65.2302L95.1662 63.8151L93.1852 60.9536L93.311 60.8593C90.8582 61.1737 88.2483 61.4882 88.091 61.4882C87.808 61.4882 77.3053 62.2743 76.8651 62.2743C75.9846 62.2114 75.1041 62.1171 74.2551 61.9284C74.0979 61.8341 67.0856 59.287 66.834 59.1298C66.5825 58.9726 64.1297 56.6142 64.1297 56.6142L59.35 55.1362L55.1678 60.2933L50.8284 66.8339ZM101.864 81.2673C102.493 81.5503 103.059 81.8962 103.656 82.2421L107.241 82.6509L109.285 82.2106L109.411 82.8396L107.273 83.2798L104.789 82.9968C105.858 83.7829 106.832 84.6634 107.713 85.6696C108.342 86.3929 108.908 87.179 109.38 87.9966L108.814 88.311C108.247 87.3677 107.587 86.4558 106.801 85.6696C105.763 84.6005 104.6 83.6257 103.342 82.8396L101.518 81.8019L101.864 81.2673ZM65.9221 69.5067L68.7836 66.771L71.2678 64.7271L74.8211 64.0353L78.5631 63.9095H82.5567L85.8584 64.0353L92.5563 64.161L94.6631 65.4503L97.2416 67.8087L98.7196 69.6325L99.4114 73.3431L98.7824 73.4689L98.1221 69.9155L96.77 68.2175L94.2858 65.9534L92.399 64.7899L87.1477 64.6956L89.4432 65.9534C90.6696 66.5823 92.7764 67.7144 92.9965 68.186C93.1537 68.4376 94.8203 70.0728 96.3612 71.5192L96.3926 71.5507L98.751 74.6009L99.0969 77.1165L98.468 77.2108L98.1535 74.8839L95.9209 71.9909C95.1348 71.2677 92.6821 68.9407 92.4619 68.5005C92.2733 68.2489 90.6381 67.3056 89.1916 66.5509L85.827 64.6956L82.5881 64.6013H78.626L74.9155 64.6956L71.6137 65.3245L69.2553 67.2427L66.5825 69.8212L66.2994 71.5192L66.8655 72.0224L68.2805 71.2677L70.6075 68.3747L74.8211 66.771L80.2926 66.205L84.9151 66.6452L90.9211 69.7583L93.4053 71.2362L95.7951 74.4122L96.8957 77.8712L98.4994 78.9089V80.3239L97.0215 81.6761L94.3801 82.7767L93.2481 83.72L92.0532 85.6696L91.4557 86.6444L91.3928 86.6759C90.6067 87.0847 89.2231 87.8079 88.8457 87.8079C88.5627 87.8708 86.8018 88.6569 85.2295 89.4431L85.0723 89.4745C84.9465 89.506 82.1793 90.355 81.4875 90.4808L81.3932 89.8519C81.9907 89.7575 84.6006 88.9714 84.8522 88.8771C86.4244 88.1224 88.3741 87.2105 88.72 87.2105C89.4746 86.9274 90.1979 86.5816 90.9211 86.1728L91.2041 85.7011L92.6506 83.3427L92.9965 83.0597C91.9903 82.9653 90.6696 82.8081 90.3237 82.6194C90.1664 82.5565 89.2231 82.4308 84.2862 82.4308C83.0598 82.4308 80.1668 81.7704 79.758 81.6446C79.4436 81.5503 76.4877 80.6698 76.4563 80.6698L76.3934 80.6384L76.3305 80.5755C76.2991 80.544 73.5633 77.9341 71.5508 76.7706L71.8653 76.2046C73.8149 77.3366 76.2991 79.6636 76.7393 80.0724C77.211 80.1982 79.6637 80.9528 79.9782 81.0472C80.3241 81.173 83.1541 81.8019 84.2862 81.8019C90.2293 81.8019 90.4809 81.9591 90.6381 82.0849C90.8582 82.2107 92.2733 82.3679 93.4682 82.4622L93.4367 82.6823L93.9084 82.2735L96.5498 81.173L97.7133 80.1038V79.3177L96.8957 78.7831L96.9272 78.8774L94.1914 79.8837L90.418 80.3239C90.2293 80.3239 89.4117 80.3554 88.4998 80.3554C87.4307 80.3554 86.2672 80.3239 85.9213 80.1982C85.4182 80.0409 82.2422 79.3491 80.67 79.0032H80.6385L80.6071 78.9718C78.626 77.9026 76.1733 76.5505 75.9846 76.2046C75.8274 76.0159 74.601 75.387 73.5633 74.8839H73.5319L70.0414 72.8399L69.5698 72.9343L69.5069 72.5255L68.4063 71.8966L66.7082 72.8085L65.5133 71.7708L65.9221 69.5067ZM67.3686 84.569L67.5258 85.198L65.3875 85.7011L64.3184 85.9526L64.2555 85.7011L64.1612 85.3237L67.3686 84.569ZM68.7207 87.5564L68.5635 88.1853C67.8403 88.028 67.0856 88.0595 66.3623 88.1853C65.1674 88.4054 63.4065 89.0972 61.7084 91.0468L61.2368 90.638C64.7272 86.5501 68.5635 87.4935 68.7207 87.5564Z" fill="#3D8130"/>
<path d="M73.0287 71.6452C73.2174 71.6137 77.6826 71.0791 78.2486 71.0791C78.4688 71.0791 79.0977 71.142 79.9152 71.2049C81.0158 71.2993 82.8711 71.4565 83.1541 71.4251C83.5943 71.2993 87.9967 70.9219 88.4998 70.859L91.1098 70.6704L90.5752 70.3559L84.6949 67.3057L80.2611 66.8655L74.9154 67.4L70.9533 68.9094L68.9408 71.4251L70.2301 72.1797L73.0287 71.6452Z" fill="#3D8130"/>
<path d="M88.5313 71.5192C86.5817 71.7079 83.5944 71.9909 83.2799 72.0538C82.9969 72.1167 81.9906 72.0538 79.8524 71.8651C79.1291 71.8022 78.4373 71.7394 78.2486 71.7394C77.8084 71.7394 74.4123 72.1481 73.1231 72.2739L71.0477 72.6513L73.8777 74.3179C74.7582 74.7267 76.2676 75.4813 76.5192 75.8587C76.7707 76.1103 78.909 77.3366 80.8901 78.4058C81.3932 78.5001 85.544 79.412 86.1729 79.6321C86.6131 79.7894 89.0344 79.7579 90.4494 79.7265L94.16 79.2862L96.3926 78.4372L96.2668 78.3743L95.1348 74.7895L92.9022 71.8022L91.5815 71.0161L91.6129 71.3306L88.5313 71.5192Z" fill="#3D8130"/>
<path d="M117.587 71.2678L116.014 69.5069L112.178 69.0667H108.09L104.788 71.425L101.644 74.9784L100.638 77.9028C101.141 78.2801 102.147 78.909 102.807 78.909C103.468 78.909 105.606 79.2549 107.336 79.5379C108.153 79.6637 108.971 79.7895 109.096 79.7895C109.379 79.7581 112.335 79.0348 114.159 78.5946L116.486 77.5254L118.341 75.3872L118.184 74.3809L112.461 72.054L105.134 71.8338L105.166 71.2049L112.618 71.425L118.782 73.9407L119.033 75.5444C119.033 75.45 119.033 75.3557 119.033 75.2614V73.5004L117.587 71.2678Z" fill="#3D8130"/>
<path d="M110.732 108.153L108.593 108.562L105.575 110.291L102.179 112.807L101.235 113.75L103.373 115.26L103.531 116.455L102.084 117.901L101.644 117.461L102.87 116.235L102.807 115.637L100.795 114.222L100.197 114.819L98.9396 115.511L98.5937 117.209L100.355 118.75L102.902 118.656C103.373 118.31 104.16 117.807 104.537 117.775C104.914 117.555 105.292 117.304 105.637 117.021C106.487 116.36 106.832 116.14 107.084 116.14C107.839 115.763 108.562 115.354 109.254 114.882L109.348 114.819L112.43 115.165L113.499 116.235L113.279 116.455C112.618 117.178 111.864 118.121 111.832 118.341C111.832 118.499 111.801 118.656 111.738 118.782L112.461 118.373L115.857 115.952L116.235 116.486L112.776 118.939L111.172 119.819C111.109 119.914 111.046 120.008 111.015 120.039L110.889 119.945L108.436 121.297L106.738 123.75L106.141 125.196L107.367 126.926L108.719 128.467L110.323 128.655L111.801 128.341L111.769 128.027L113.404 125.448L116.486 122.461L116.926 122.932L113.876 125.888L112.398 128.184L112.493 129.913L114.065 130.982L116.14 131.202L117.304 130.857L117.084 130.511L117.241 130.322C117.304 130.228 119.002 128.31 119.348 127.995C119.599 127.744 121.046 126.077 121.769 125.259L122.241 125.668C122.146 125.762 120.134 128.121 119.788 128.435C119.536 128.687 118.31 130.039 117.87 130.542L118.97 132.177H120.826L122.429 131.454L123.75 129.504L125.511 127.618L125.983 128.058L124.222 129.913L122.87 131.957L120.951 132.806H118.624L117.65 131.36L116.172 131.8L113.813 131.58L111.864 130.228L111.801 128.97L110.323 129.284L108.373 129.033L106.895 127.335L104.694 126.014L102.399 123.467L101.833 119.505L102.462 119.411L102.933 122.807L105.669 120.637L108.625 117.807L110.323 115.48L109.505 115.385C108.593 115.983 107.524 116.643 107.147 116.706C106.77 116.926 106.392 117.178 106.046 117.461C105.166 118.121 104.82 118.341 104.6 118.341C104.128 118.561 103.656 118.844 103.248 119.159L103.153 119.222L100.166 119.348L97.9334 117.367L98.2478 115.857L98.0277 115.983L96.0152 114.536L93.6568 115.228C93.4053 115.794 93.2166 116.36 93.0908 116.958C93.1223 117.209 93.8141 118.373 94.443 119.285C95.292 120.228 97.2416 122.461 97.3674 122.932C97.4617 123.278 97.8705 124.285 98.0277 124.662L98.0592 124.725L97.9648 129.001L99.1912 130.825C99.8201 131.202 104.443 133.907 104.977 134.221C105.354 134.441 108.688 135.385 110.732 135.951L117.618 136.611L123.153 135.856L127.901 133.687L130.479 131.202L129.882 129.001L126.706 123.09L124.41 119.599L120.417 115.26L114.537 112.021L113.656 110.134L110.732 108.153Z" fill="#3D8130"/>
<path d="M115.731 95.4178L115.637 95.4492C115.008 95.6693 111.801 96.8014 111.109 96.8014C110.449 96.8014 104.002 96.8957 103.939 96.9272C103.845 96.9272 95.9838 96.4869 95.009 96.4869C94.3801 96.4869 91.833 96.0781 89.569 95.7008C88.3112 95.4807 87.0219 95.292 86.8332 95.292C86.393 95.292 78.2487 93.6254 76.6135 93.3109H76.582L68.7522 90.8896L65.4818 90.1664L64.3498 91.0154L63.9725 92.3676L64.2555 93.8141L67.9031 96.2668L74.1608 99.883L81.2674 102.839L88.7199 104.034L93.3738 104.914L98.9397 105.669L107.304 104.788H107.336L111.706 104.883L114.348 104.128L116.581 102.336L118.404 99.5371L118.813 98.2478L118.216 96.8014C115.574 99.1912 115.291 99.2855 115.134 99.317L112.43 99.9773L104.914 100.323H104.883L97.0215 99.883L89.2231 98.468L82.934 98.5938H82.9026L76.3619 96.9272L70.576 94.9146L67.4944 93.0279L67.8402 92.4934L70.8904 94.3486L76.582 96.3297L83.0283 97.9648L89.3174 97.8391H89.3489L97.1473 99.2541L104.946 99.6943L112.398 99.3799L115.008 98.7195C115.165 98.6566 116.046 97.9648 117.901 96.2668C118.153 96.0467 118.31 95.8895 118.373 95.8266L120.763 92.5562L121.58 91.0154C121.455 90.4809 121.329 89.9777 121.266 89.4432C120.951 88.94 120.606 88.4998 120.197 88.0596C120.197 88.3426 120.197 88.6256 120.134 88.9086V88.9715L117.964 92.7135L115.731 95.4178Z" fill="#983B1F"/>
<path d="M130.385 128.781L127.178 122.807L124.851 119.253L120.826 114.757L115.008 111.581L114.159 109.757L114.002 109.851C114.002 109.851 114.537 111.801 114.914 111.989C115.291 112.178 120.322 114.757 120.574 114.882C120.826 115.008 125.197 120.228 125.197 120.228L128.718 126.36L130.825 131.077C130.825 131.077 128.121 133.844 127.964 133.875C127.806 133.907 122.587 136.454 122.429 136.454C122.272 136.454 117.209 137.02 116.926 136.957C116.643 136.863 110.417 136.328 109.946 136.297C109.442 136.265 103.688 133.97 103.688 133.97L98.7195 130.982L97.3045 128.781L95.3235 131.014C95.3235 131.014 92.5248 132.429 92.1475 132.429C91.7701 132.429 84.915 133.341 84.3805 133.341H70.576C70.576 133.341 56.9287 133.089 56.3313 132.806C56.1426 132.712 55.042 132.366 53.5955 131.894L52.432 131.674L50.6082 130.982C48.3756 130.291 46.3631 129.693 46.3631 129.693L40.7344 126.045C40.7344 126.045 38.376 121.958 38.2816 121.737C38.1873 121.517 36.7408 118.09 36.7408 117.933C36.7408 117.775 36.2377 115.04 36.2377 115.04L37.2439 108.782L37.6842 102.21L38.7533 95.0404C38.7533 95.0404 40.5457 87.8394 40.5771 87.525C40.6086 87.1791 43.5016 80.0725 43.5016 80.0725L46.5518 74.5695L50.5768 66.268L55.0106 60.0104L59.3186 54.8848L59.6016 54.9791L59.0984 54.5703L54.9162 59.7588L50.2623 66.5195L46.6147 73.6262L42.8727 80.9844L40.1998 87.9652L38.4074 95.3863L37.3068 103.499L36.6465 110.449L35.8604 115.134L36.6465 118.845L37.9986 121.989L40.4828 126.391L46.1744 129.976L52.1805 132.335L58.3123 133.467L65.3246 133.812H71.0477C71.708 133.812 77.211 133.498 77.5568 133.467L84.9465 133.592H84.9779L92.1789 132.712H92.2104L95.5121 131.328L97.2102 129.284L98.6252 131.391L98.6881 131.423C98.751 131.454 104.002 134.504 104.537 134.85C105.103 135.196 109.914 136.517 110.48 136.643L117.524 137.303L123.184 136.517H123.215L128.121 134.284L128.184 134.253L131.108 131.423L130.385 128.781Z" fill="black"/>
<path d="M55.0106 60.0104L50.5768 66.268L46.5518 74.5695L43.5016 80.0725C43.5016 80.0725 40.6086 87.1791 40.5772 87.525C40.5457 87.8709 38.7534 95.0404 38.7534 95.0404L37.6842 102.21L37.244 108.782L36.2377 115.04C36.2377 115.04 36.7409 117.775 36.7409 117.933C36.7409 118.09 38.1873 121.517 38.2817 121.738C38.376 121.958 40.7344 126.046 40.7344 126.046L46.3631 129.693C46.3631 129.693 48.3756 130.291 50.6082 130.982L46.5203 129.379L40.986 125.92L38.5961 121.706L37.3069 118.656L36.5522 115.103L37.3069 110.543L37.9672 103.594L39.0678 95.5436L40.8287 88.1853L43.4702 81.2674L47.2121 73.8777L50.8284 66.834L55.4508 60.1361L59.633 54.9791L59.35 54.8848L55.0106 60.0104Z" fill="black"/>
<path d="M110.857 107.493L108.373 107.964L105.229 109.757L101.77 112.304L99.7887 114.285L98.0277 115.26L96.0781 113.845L93.1223 114.694L93.0594 114.819C92.9336 115.102 92.3676 116.455 92.3676 116.926C92.3676 117.398 93.3109 118.844 93.8455 119.631L93.8769 119.662C95.1662 121.109 96.5812 122.775 96.6756 123.058C96.7699 123.467 97.2101 124.536 97.3359 124.819L97.2416 128.152L95.1347 130.668L92.0531 131.957L84.9465 132.838L77.5883 132.712C77.5254 132.712 71.7394 133.058 71.1105 133.058H65.3875L58.4695 132.743L53.627 131.863C55.042 132.303 56.174 132.68 56.3627 132.775C56.9287 133.058 70.6074 133.309 70.6074 133.309H84.4119C84.9465 133.309 91.833 132.397 92.1789 132.397C92.5562 132.397 95.3549 130.982 95.3549 130.982L97.3359 128.75L98.751 130.951L103.719 133.938C103.719 133.938 109.474 136.202 109.977 136.265C110.48 136.297 116.675 136.831 116.958 136.925C117.241 137.02 122.303 136.422 122.461 136.422C122.618 136.422 127.838 133.907 127.995 133.844C128.152 133.812 130.857 131.045 130.857 131.045L128.75 126.328L125.228 120.197C125.228 120.197 120.857 114.977 120.605 114.851C120.354 114.725 115.323 112.147 114.945 111.958C114.568 111.769 114.033 109.82 114.033 109.82L114.191 109.725V109.694L110.857 107.493ZM114.505 112.021L120.385 115.26L124.316 119.599L126.611 123.09L129.787 129.001L130.385 131.202L127.806 133.687L123.058 135.856L117.524 136.611L110.637 135.951C108.593 135.385 105.26 134.441 104.883 134.221C104.348 133.907 99.7258 131.202 99.0969 130.825L97.8705 129.001L97.9648 124.725V124.693C97.8076 124.316 97.3988 123.31 97.3045 122.964C97.1787 122.492 95.2291 120.259 94.3801 119.316C93.7512 118.373 93.0279 117.209 93.0279 116.989C93.1537 116.392 93.3424 115.826 93.5939 115.26L95.9523 114.568L97.9648 116.014L98.1849 115.889L97.8705 117.398L100.103 119.379L103.09 119.253L103.185 119.19C103.594 118.876 104.065 118.593 104.537 118.373C104.788 118.373 105.103 118.153 105.983 117.492C106.329 117.209 106.707 116.958 107.084 116.738C107.461 116.706 108.562 116.014 109.442 115.417L110.26 115.511L108.562 117.838L105.606 120.668L102.87 122.838L102.399 119.442L101.77 119.536L102.336 123.498L104.631 126.045L106.832 127.366L108.31 129.064L110.26 129.316L111.738 129.001L111.801 130.259L113.75 131.611L116.109 131.831L117.587 131.391L118.561 132.838H120.888L122.807 131.989L124.159 129.945L125.92 128.089L125.448 127.649L123.687 129.536L122.366 131.485L120.763 132.209H118.907L117.807 130.574C118.247 130.07 119.473 128.718 119.725 128.467C120.071 128.121 122.083 125.794 122.178 125.7L121.706 125.291C120.983 126.14 119.536 127.775 119.285 128.026C118.939 128.372 117.241 130.291 117.178 130.353L117.021 130.542L117.241 130.888L116.077 131.234L114.002 131.014L112.43 129.945L112.335 128.215L113.813 125.92L116.863 122.964L116.423 122.492L113.342 125.479L111.706 128.058L111.738 128.372L110.26 128.687L108.656 128.498L107.304 126.957L106.078 125.228L106.675 123.781L108.373 121.329L110.826 119.976L110.952 120.071C110.983 120.008 111.046 119.945 111.109 119.851L112.713 118.97L116.172 116.517L115.794 115.983L112.398 118.404L111.675 118.813C111.738 118.687 111.769 118.53 111.769 118.373C111.801 118.121 112.555 117.209 113.216 116.486L113.436 116.266L112.367 115.197L109.285 114.851L109.191 114.914C108.499 115.385 107.776 115.826 107.021 116.172C106.77 116.172 106.424 116.423 105.575 117.052C105.229 117.335 104.851 117.587 104.474 117.807C104.097 117.838 103.342 118.341 102.839 118.687L100.292 118.782L98.5308 117.241L98.8767 115.543L100.135 114.851L100.732 114.253L102.745 115.668L102.807 116.266L101.581 117.492L102.021 117.933L103.468 116.486L103.311 115.291L101.172 113.782L102.116 112.838L105.512 110.323L108.53 108.593L110.669 108.184L113.562 110.166L114.505 112.021ZM105.889 126.077L105.04 125.574L103.153 123.498L106.046 121.234L109.034 118.341L110.983 115.637L112.084 115.763L112.555 116.234C111.958 116.895 111.14 117.87 111.14 118.31C111.046 118.687 110.857 119.033 110.637 119.316L107.902 120.825L106.078 123.435L105.323 125.322L105.889 126.077Z" fill="black"/>
<path d="M113.593 61.9915L115.197 64.0983C115.197 64.0983 115.983 65.3247 116.266 65.419C116.549 65.5133 119.159 67.0227 119.159 67.0227L120.228 68.2176L120.008 68.9094L119.19 68.6579L119.316 72.7143H119.568V69.0666L120.291 69.4754L120.48 67.9346L118.436 66.1422L116.235 65.0731L116.329 65.0102L114.631 62.3374L111.203 59.3186L110.826 59.7588H111.172L113.593 61.9915Z" fill="black"/>
<path d="M118.939 78.563C118.939 78.563 117.775 80.8899 117.65 80.9528C117.524 81.0472 116.486 81.4874 116.486 81.4874L116.58 82.0534C117.052 82.3993 117.524 82.7767 117.933 83.1854C117.996 83.2798 118.687 84.6634 119.253 85.7011H119.819C119.285 84.1288 118.216 82.7767 116.801 81.9276C116.863 81.8019 116.926 81.6446 116.989 81.5188C117.084 81.456 117.209 81.3931 117.304 81.2987C118.845 80.1353 119.631 78.1227 119.725 75.2927V73.3116L119.348 72.7456L119.442 75.7958L118.939 78.563Z" fill="black"/>
<path d="M114.159 62.8089L115.354 64.6642L115.197 64.5698L111.235 64.2239L106.77 65.0101L104.946 65.7962L105.197 66.3937L106.927 65.639L111.266 64.8843L115.04 65.1987L118.153 66.7081L119.882 68.2175L119.851 68.469L119.505 68.2804L115.826 66.9282L115.763 66.8968C115.606 66.8653 111.989 66.3308 111.078 66.3308C110.166 66.3308 106.77 66.8653 106.612 66.8968H106.549L102.084 69.7897L102.43 70.3243L106.801 67.4942C107.304 67.4313 110.323 66.9597 111.109 66.9597C111.927 66.9597 115.291 67.4628 115.669 67.4942L119.065 68.7206V72.1796L118.216 70.9218L116.455 68.9093L112.367 68.469H108.027L104.537 70.9532L101.235 74.6952L100.04 78.1856L100.229 78.3114C100.386 78.4372 101.895 79.6007 102.965 79.6007C103.562 79.6007 105.889 79.978 107.398 80.1981C108.625 80.3868 109.128 80.4811 109.254 80.4811C109.6 80.4811 113.373 79.5378 114.505 79.2548L117.052 78.0913L119.159 75.6071C119.033 78.0284 118.31 79.7894 117.021 80.7642C115.165 82.1792 112.744 81.5817 112.744 81.5817L112.681 81.8962L112.618 82.2106C113.09 82.305 113.562 82.3679 114.033 82.3679C114.788 82.3679 115.543 82.2421 116.235 81.9591C115.669 83.1226 114.945 83.8772 114.096 84.1917C113.373 84.4433 112.555 84.3804 111.864 84.0345L111.549 84.6005C112.052 84.852 112.618 84.9778 113.153 84.9778C113.53 84.9778 113.908 84.9149 114.285 84.7892C115.228 84.4433 116.014 83.6886 116.675 82.4936C117.87 83.2483 118.813 84.3804 119.316 85.7011H119.411C118.876 84.6634 118.153 83.2798 118.09 83.1854C117.65 82.7767 117.209 82.3993 116.738 82.0534L116.643 81.4874C116.643 81.4874 117.681 81.0472 117.807 80.9528C117.933 80.8585 119.096 78.563 119.096 78.563L119.599 75.8272L119.505 72.777L119.379 68.7206L120.197 68.9722L120.417 68.2804L119.348 67.0854C119.348 67.0854 116.738 65.5446 116.455 65.4817C116.172 65.3874 115.386 64.161 115.386 64.161L113.782 62.0542L111.329 59.853H110.983L110.952 59.8845L114.159 62.8089ZM119.065 75.5442L118.813 73.9405L112.65 71.4249L105.197 71.2048L105.166 71.8337L112.493 72.0538L118.216 74.3808L118.373 75.387L116.518 77.5253L114.191 78.5944C112.367 79.0347 109.411 79.7579 109.128 79.7893C109.002 79.7893 108.185 79.6636 107.367 79.5378C105.637 79.2548 103.499 78.9089 102.839 78.9089C102.21 78.9089 101.204 78.28 100.669 77.9026L101.675 74.9782L104.82 71.4249L108.122 69.0665H112.21L116.046 69.5067L117.618 71.2677L119.096 73.5003V75.2612C119.065 75.3556 119.065 75.4499 119.065 75.5442Z" fill="black"/>
<path d="M98.9711 106.266L100.984 106.046H97.4302L98.9711 106.266Z" fill="black"/>
<path d="M116.863 106.172C116.769 106.329 114.945 109.285 114.945 109.285L114.128 109.725L114.316 109.946L115.763 108.688L117.146 106.361V106.046H116.863C116.895 106.109 116.895 106.141 116.863 106.172Z" fill="black"/>
<path d="M116.863 106.172C116.863 106.141 116.895 106.078 116.895 106.046H116.549V106.172L115.291 108.248L113.939 109.442L114.159 109.694L114.191 109.725L115.008 109.285C114.977 109.285 116.801 106.361 116.863 106.172Z" fill="black"/>
<path d="M119.882 86.8961L120.165 87.3049C120.102 86.7703 120.008 86.2357 119.819 85.7012H119.253C119.599 86.3615 119.882 86.8961 119.882 86.8961Z" fill="black"/>
<path d="M121.926 90.4181C121.895 90.5753 121.517 91.8331 121.423 92.0218C121.329 92.2419 118.373 96.2983 118.373 96.2983L119.065 97.7134C119.065 97.7134 119.19 98.7196 119.096 98.8769C119.002 99.0341 116.392 103.091 116.392 103.091L116.801 104.223C116.801 104.223 116.895 105.638 116.863 106.078H117.146V103.908L116.801 102.965L117.084 102.745L119.002 99.7888L119.505 98.1851L118.75 96.3298C118.813 96.2669 118.845 96.2354 118.845 96.2354L121.297 92.8708L122.272 91.0784L122.241 90.9526C122.115 90.4495 121.989 89.9149 121.926 89.3804C121.926 89.2546 121.926 88.9087 120.291 87.1792L120.165 87.305L121.14 88.6886C121.14 88.6886 121.958 90.2608 121.926 90.4181Z" fill="black"/>
<path d="M119.253 85.7012H119.159C119.536 86.676 119.662 87.7137 119.536 88.7514L117.461 92.3047L115.323 94.8518C113.876 95.3549 111.518 96.141 111.109 96.141C110.449 96.141 104.348 96.2354 103.939 96.2668C103.468 96.2354 95.9838 95.8266 95.009 95.8266C94.443 95.8266 91.6758 95.3863 89.6633 95.0404C87.808 94.726 87.0219 94.6002 86.8332 94.6002C86.4244 94.5687 80.607 93.4053 76.7707 92.6191L68.9408 90.1978L65.356 89.3803L63.8152 90.5123L63.3121 92.2418L63.6894 94.0971L67.5572 96.707L73.8777 100.355L81.0787 103.342H81.1102L88.6256 104.568L93.2795 105.449L97.3988 106.015H100.984L107.367 105.354L111.769 105.449H111.832L114.694 104.631L116.297 103.342L116.549 103.971V106.015H116.895C116.926 105.575 116.832 104.16 116.832 104.16L116.423 103.028C116.423 103.028 119.033 98.9711 119.128 98.8139C119.222 98.6566 119.096 97.6504 119.096 97.6504L118.404 96.2354C118.404 96.2354 121.392 92.1789 121.455 91.9588C121.549 91.7387 121.895 90.5123 121.958 90.3551C121.989 90.1978 121.171 88.6256 121.171 88.6256L120.197 87.242L119.914 86.8332C119.882 86.8961 119.599 86.3615 119.253 85.7012ZM120.165 88.9086C120.197 88.6256 120.228 88.3426 120.228 88.0596C120.637 88.4684 120.983 88.94 121.297 89.4432C121.36 89.9777 121.455 90.5123 121.612 91.0154L120.794 92.5562L118.404 95.8266C118.341 95.8895 118.153 96.0467 117.933 96.2668C116.077 97.9649 115.228 98.6252 115.04 98.7195L112.43 99.3799L104.977 99.6943L97.1787 99.2541L89.3803 97.8391H89.3488L83.0598 97.9648L76.6135 96.3297L70.9219 94.3486L67.8717 92.4934L67.5258 93.0279L70.6074 94.9146L76.3934 96.9272L82.934 98.5938H82.9654L89.2545 98.468L97.0529 99.883L104.914 100.323H104.946L112.461 99.9773L115.165 99.317C115.291 99.2855 115.606 99.1912 118.247 96.8014L118.845 98.2479L118.436 99.5371L116.612 102.336L114.379 104.128L111.738 104.883L107.367 104.788H107.336L98.9711 105.669L93.4053 104.914L88.7514 104.034L81.2988 102.839L74.1922 99.883L67.9346 96.2668L64.2869 93.8141L64.0039 92.3676L64.3812 91.0154L65.5133 90.1664L68.7836 90.8897L76.6135 93.3109H76.6449C78.2801 93.6568 86.393 95.292 86.8647 95.292C87.0219 95.292 88.3426 95.5121 89.6004 95.7008C91.8645 96.0781 94.4115 96.4869 95.0404 96.4869C96.0152 96.4869 103.877 96.9272 103.971 96.9272C104.034 96.9272 110.48 96.8014 111.14 96.8014C111.832 96.8014 115.04 95.6693 115.669 95.4492L115.763 95.4178L118.027 92.7135L120.197 88.9715L120.165 88.9086Z" fill="black"/>
<path d="M66.3623 88.1853C67.0856 88.028 67.8402 88.028 68.5635 88.1853L68.7207 87.5563C68.5635 87.5249 64.7272 86.5501 61.2367 90.638L61.7084 91.0468C63.4065 89.0657 65.1674 88.4054 66.3623 88.1853Z" fill="black"/>
<path d="M65.3561 85.7011L67.4943 85.198L67.3686 84.5691L64.1611 85.3238L64.2555 85.7011H65.3561Z" fill="black"/>
<path d="M64.3184 85.9527L65.356 85.7012H64.2555L64.3184 85.9527Z" fill="black"/>
<path d="M103.405 82.8711C104.663 83.6887 105.826 84.632 106.864 85.7012H107.744C106.864 84.6949 105.889 83.8145 104.82 83.0283L107.304 83.3113L109.442 82.8711L109.317 82.2422L107.273 82.6824L103.688 82.2736C103.122 81.8963 102.524 81.5818 101.895 81.2988L101.612 81.8648L103.405 82.8711Z" fill="black"/>
<path d="M108.845 88.3426L109.411 88.0281C108.939 87.2105 108.373 86.4244 107.744 85.7012H106.864C107.619 86.5187 108.279 87.3992 108.845 88.3426Z" fill="black"/>
<path d="M68.4062 71.8966L69.5068 72.5255L69.5697 72.9343L70.0414 72.8399L73.5318 74.8839H73.5633C74.601 75.387 75.8273 76.0159 75.9846 76.2046C76.2047 76.519 78.626 77.8712 80.607 78.9718L80.6385 79.0032H80.6699C82.2736 79.3491 85.4182 80.0409 85.9213 80.1981C86.2986 80.3239 87.4621 80.3554 88.4998 80.3554C89.4117 80.3554 90.2607 80.3239 90.418 80.3239L94.1914 79.8837L96.9272 78.8774L96.8957 78.7831L97.7133 79.3177V80.1038L96.5498 81.1729L93.9084 82.2735L93.4367 82.6823L93.4682 82.4622C92.2732 82.3679 90.8582 82.1792 90.6381 82.0849C90.4809 81.9905 90.2293 81.8019 84.2861 81.8019C83.1541 81.8019 80.324 81.1729 79.9781 81.0472C79.6637 80.9528 77.2109 80.1981 76.7392 80.0724C76.3305 79.6636 73.8463 77.3681 71.8652 76.2046L71.5508 76.7706C73.5947 77.9655 76.3305 80.544 76.3305 80.5755L76.3933 80.6384L76.4562 80.6698C76.4877 80.6698 79.4435 81.5503 79.758 81.6446C80.1353 81.7704 83.0283 82.4308 84.2861 82.4308C89.223 82.4308 90.135 82.5565 90.3236 82.6194C90.6695 82.8081 91.9902 82.9653 92.9965 83.0597L92.6506 83.3427L91.2041 85.7011H91.9588L93.1537 83.7515L94.2857 82.8081L96.9272 81.7075L98.4051 80.3554V78.9403L96.8014 77.9026L95.7008 74.4436L93.3109 71.2677L90.8267 69.7897L84.8207 66.6767L80.1982 66.2364L74.7267 66.8024L70.5131 68.4062L68.1861 71.2991L66.7711 72.0538L66.2051 71.5507L66.4881 69.8526L69.1609 67.2741L71.5193 65.356L74.8211 64.7271L78.5316 64.6327H82.4937L85.7326 64.7271L89.0973 66.5823C90.5437 67.337 92.2104 68.2804 92.3676 68.5319C92.5877 68.9722 95.0404 71.2991 95.8266 72.0224L98.0592 74.9153L98.3736 77.2423L99.0025 77.1479L98.6566 74.6323L96.2982 71.5821L96.2668 71.5507C94.726 70.1356 93.0594 68.5005 92.9021 68.2175C92.682 67.7458 90.5752 66.6138 89.3488 65.9849L87.0533 64.7271L92.3047 64.8214L94.1914 65.9849L96.6756 68.2489L98.0277 69.947L98.6881 73.5003L99.317 73.3745L98.6252 69.664L97.1473 67.8401L94.5688 65.4817L92.4619 64.1925L85.7641 64.0667L82.4623 63.9409H78.4687L74.7267 64.0667L71.1734 64.7585L68.6892 66.8024L65.8277 69.5382L65.4504 71.8022L66.6453 72.8399L68.4062 71.8966ZM92.9336 71.7708L95.1662 74.7581L96.2982 78.3429L96.424 78.4058L94.1914 79.2548L90.4809 79.695C89.0658 79.7265 86.6445 79.7579 86.2043 79.6007C85.5754 79.3806 81.4246 78.5001 80.9215 78.3743C78.9404 77.3052 76.7707 76.0788 76.5506 75.8272C76.299 75.4813 74.7896 74.7267 73.9092 74.2864L71.0791 72.6198L73.1545 72.2425C74.4437 72.0853 77.8398 71.7079 78.2801 71.7079C78.4687 71.7079 79.1605 71.7708 79.8838 71.8337C82.0221 72.0224 83.0283 72.0853 83.3113 72.0224C83.6258 71.9595 86.6131 71.645 88.5627 71.4878L91.6443 71.2677L91.6129 70.9532L92.9336 71.7708ZM70.9219 68.9407L74.884 67.4313L80.2297 66.8968L84.6635 67.337L90.5437 70.3872L91.0783 70.7017L88.4684 70.8903C87.9652 70.9218 83.5629 71.3306 83.1226 71.4563C82.8396 71.5192 81.0158 71.3306 79.8838 71.2362C79.0662 71.1733 78.4373 71.1104 78.2172 71.1104C77.6512 71.1104 73.1859 71.645 72.9973 71.6765L70.1672 72.211L68.8779 71.4563L70.9219 68.9407Z" fill="black"/>
<path d="M90.9211 86.1728C90.1978 86.5816 89.4746 86.896 88.7199 87.2105C88.374 87.2105 86.4244 88.1224 84.8521 88.8771C84.5691 88.9714 81.9906 89.7576 81.3932 89.8519L81.4875 90.4808C82.1478 90.355 84.9465 89.506 85.0723 89.4746L85.1037 89.4431C86.676 88.6884 88.4684 87.8709 88.7199 87.808C89.0973 87.7765 90.4809 87.0847 91.267 86.6759L91.3299 86.6445L91.9273 85.6697H91.1726L90.9211 86.1728Z" fill="black"/>
<path d="M93.9399 60.4192L93.5311 60.7022C93.7197 60.6708 93.9084 60.6708 94.0971 60.6393L93.9399 60.4192Z" fill="black"/>
<path d="M95.4178 63.658L96.2353 65.073L95.8266 66.488L96.4555 66.6767L96.9271 65.0101L95.9838 63.3435L94.1285 60.6707C93.9398 60.7021 93.7512 60.7021 93.5625 60.7335L93.4367 60.8279L95.4178 63.658Z" fill="black"/>
<path d="M114.662 62.9032L117.461 62.6202C117.461 62.6202 124.442 64.6956 124.725 64.9786C125.008 65.2616 128.53 66.8025 128.53 66.8025L130.605 66.9911L130.888 65.1044L129.347 62.9032L124.913 59.6329L119.851 57.1802L116.675 56.0796L115.543 40.0425L112.87 36.0489L108.876 32.7786L103.719 30.2315L98.3736 30.1372L88.3111 31.395L79.0662 33.2188L78.5316 31.6466C77.8084 31.4579 77.0851 31.3321 76.3619 31.2378C75.8273 31.2378 70.9219 32.7472 70.9219 32.7472L67.9346 34.3194L67.3056 36.1433L63.0291 38.5017L59.5701 42.8411L57.589 47.0233C57.589 47.0233 56.5828 51.2056 56.5828 51.4571C56.5828 51.7087 57.1174 54.0042 57.4947 54.1614C57.8721 54.3187 60.6707 55.0734 60.6707 55.0734L64.3498 56.8972L69.664 59.9788L76.2676 62.1485C76.2676 62.1485 82.5252 61.7083 83.1541 61.7083C83.783 61.7083 93.2166 60.7021 93.7512 60.7021C94.2857 60.7021 104.631 59.8845 104.914 59.8845C105.197 59.8845 111.361 59.7901 111.361 59.7901L113.813 61.9599L114.662 62.9032Z" fill="#C82727"/>
<path d="M112.21 71.8024L113.027 73.5319L113.53 75.513L113.279 76.7708L112.21 79.5065L108.813 80.0726L103.342 79.0978L102.682 77.1796L102.933 75.4501L103.499 72.7144L104.914 71.1421L105.826 71.6452L111.864 71.8024" fill="black"/>
<path d="M87.3049 71.5509L88.3111 73.469L88.4055 75.796L87.9023 77.8714L86.8332 79.538L85.1037 79.6323L78.4687 77.6513L75.8273 75.3243L76.1732 73.8464L77.0851 72.4313L78.3115 71.4565L82.9654 71.5823C82.9025 71.5509 87.1162 71.8968 87.3049 71.5509Z" fill="black"/>
<path d="M130.039 63.1549L127.461 60.8908L123.75 58.4066L117.65 56.174L116.801 55.8281L116.549 50.5768C116.235 47.9982 115.794 44.099 115.794 43.7846C115.794 43.3443 115.574 40.1369 115.574 40.0111V39.9482L113.75 36.6465L110.7 33.502L106.015 30.8291L102.116 29.7285H96.7699L91.5185 30.3889C89.4117 30.7348 86.11 31.2693 85.7326 31.2693C85.1666 31.2693 80.7642 32.2756 80.2611 32.3699L78.7203 32.7787L78.9719 32.6529L78.4687 31.6467L76.8336 31.0178L74.4437 31.2379L70.6074 32.1813L67.7144 34.0365L67.117 35.5773L67.5258 35.7346L65.9221 36.1434H65.8592L62.4631 38.2816L60.1047 40.9545L57.9664 44.5393L56.2683 50.3881V52.4949L57.3689 54.4445L64.2555 56.8973L66.551 58.9726L71.6765 61.2996L76.2047 62.4316L84.6635 61.8656L96.8957 60.5449L105.606 59.8846L112.838 59.9789L120.48 61.0795L126.517 63.941L126.8 63.375L120.7 60.482L112.933 59.3814L105.606 59.2557L96.8642 59.916L84.632 61.2367L76.299 61.7713L71.9596 60.7021L66.9597 58.4066L64.6328 56.2998L57.8406 53.8785L56.9601 52.3062V50.451L58.5953 44.7908L60.6707 41.3318L62.9348 38.7533L66.1736 36.7094L80.4498 32.9674C82.3051 32.5586 85.4181 31.8668 85.7955 31.8668C86.3615 31.8668 91.1412 31.0807 91.6758 30.9863L96.8328 30.326H102.053L105.732 31.3951L110.291 34.0051L113.216 37.0238L114.914 40.1369C114.977 41.3004 115.134 43.4701 115.134 43.7846C115.134 44.2248 115.826 50.0107 115.92 50.6396L116.172 55.5766L112.461 54.1615L105.134 53.3754L99.6 52.8094L94.1599 53.2496L87.8709 53.9099L80.5441 55.5766L75.0412 56.8973L71.3621 57.1174L66.6453 56.174L69.0351 57.9035L70.9848 59.0355L75.45 60.1361L79.8209 60.2619H79.8523L83.7515 59.8217L89.2545 58.9412L94.6316 58.0607L100.669 57.6205L104.851 57.4004L109.883 57.7148L116.706 58.5953L125.511 60.2619L127.052 61.2682L129.504 63.4064L130.196 65.0101L130.039 66.2051L128.718 66.2994L126.14 65.1045L121.392 63.2178L117.65 62.0857L114.379 62.4316L114.442 63.0605L117.587 62.7461L121.14 63.8152L125.857 65.6705L128.593 66.9283L130.574 66.8025L130.857 64.9158L130.039 63.1549ZM67.7773 35.6402L68.249 34.4453L70.859 32.7787L74.5381 31.8982L76.7707 31.6781L78.0285 32.1498L78.3744 32.8416L67.7773 35.6402ZM116.801 58.0922L109.914 57.2117L104.82 56.8658L100.606 57.0859L94.5373 57.5262L89.0973 58.4066L83.5943 59.2871L79.758 59.7273L75.5129 59.633L71.1734 58.5639L69.3496 57.4947H69.3181L71.2363 57.8721L75.0412 57.6519L80.607 56.3312L87.8709 54.6961L94.1285 54.0357L99.5057 53.5955L104.977 54.1301L112.21 54.8848L117.367 56.8658L123.404 59.067L124.096 59.5387L116.801 58.0922Z" fill="black"/>
<path d="M85.2324 76.7634C86.2811 76.4515 86.9185 75.4834 86.6561 74.6011C86.3937 73.7189 85.3308 73.2566 84.2821 73.5685C83.2334 73.8804 82.596 74.8485 82.8584 75.7307C83.1208 76.613 84.1837 77.0753 85.2324 76.7634Z" fill="white"/>
<path d="M80.1039 76.5819C80.5554 76.5819 80.9215 76.2159 80.9215 75.7644C80.9215 75.3128 80.5554 74.9468 80.1039 74.9468C79.6524 74.9468 79.2863 75.3128 79.2863 75.7644C79.2863 76.2159 79.6524 76.5819 80.1039 76.5819Z" fill="white"/>
<path d="M79.6008 74.0351C80.0523 74.0351 80.4184 73.669 80.4184 73.2175C80.4184 72.7659 80.0523 72.3999 79.6008 72.3999C79.1492 72.3999 78.7832 72.7659 78.7832 73.2175C78.7832 73.669 79.1492 74.0351 79.6008 74.0351Z" fill="white"/>
<path d="M106.235 77.6197C106.652 77.6197 106.99 77.2818 106.99 76.865C106.99 76.4482 106.652 76.1104 106.235 76.1104C105.818 76.1104 105.48 76.4482 105.48 76.865C105.48 77.2818 105.818 77.6197 106.235 77.6197Z" fill="white"/>
<path d="M106.141 74.7582C106.592 74.7582 106.958 74.3922 106.958 73.9406C106.958 73.4891 106.592 73.123 106.141 73.123C105.689 73.123 105.323 73.4891 105.323 73.9406C105.323 74.3922 105.689 74.7582 106.141 74.7582Z" fill="white"/>
<path d="M110.637 77.0853C111.454 77.0853 112.115 76.4236 112.115 75.6073C112.115 74.7911 111.454 74.1294 110.637 74.1294C109.821 74.1294 109.159 74.7911 109.159 75.6073C109.159 76.4236 109.821 77.0853 110.637 77.0853Z" fill="white"/>
</svg>
