<svg width="380" height="374" viewBox="0 0 380 374" fill="none" xmlns="http://www.w3.org/2000/svg">
<path fill-rule="evenodd" clip-rule="evenodd" d="M334 14.5C334 13.1 335.1 12 336.5 12H354.5C362.5 12 369 18.5 369 26.5V44.5C369 45.9 367.9 47 366.5 47C365.1 47 364 45.9 364 44.5V26.5C364 21.3 359.7 17 354.5 17H336.5C335.1 17 334 15.9 334 14.5Z" fill="#3D3B38"/>
<path fill-rule="evenodd" clip-rule="evenodd" d="M14.5 47C13.1 47 12 45.9 12 44.5V26.5C12 18.5 18.5 12 26.5 12H44.5C45.9 12 47 13.1 47 14.5C47 15.9 45.9 17 44.5 17H26.5C21.3 17 17 21.3 17 26.5V44.5C17 45.9 15.9 47 14.5 47Z" fill="#3D3B38"/>
<path fill-rule="evenodd" clip-rule="evenodd" d="M14.5 326C15.9 326 17 327.1 17 328.5V346.5C17 351.7 21.3 356 26.5 356H44.5C45.9 356 47 357.1 47 358.5C47 359.9 45.9 361 44.5 361H26.5C18.5 361 12 354.5 12 346.5V328.5C12 327.1 13.1 326 14.5 326ZM366.5 326C367.9 326 369 327.1 369 328.5V346.5C369 354.5 362.5 361 354.5 361H336.5C335.1 361 334 359.9 334 358.5C334 357.1 335.1 356 336.5 356H354.5C359.7 356 364 351.7 364 346.5V328.5C364 327.1 365.1 326 366.5 326Z" fill="#3D3B38"/>
<path d="M174 74.9999C176.4 74.9999 178.3 73.0999 178.3 70.6999C178.3 68.2999 176.4 66.3999 174 66.3999C171.6 66.3999 169.7 68.2999 169.7 70.6999C169.7 73.0999 171.6 74.9999 174 74.9999Z" fill="#ECEBE7"/>
<path d="M157.4 83.2998H161.4V87.2998C161.4 89.6998 163.2 91.5998 165.7 91.5998C168.1 91.5998 170 89.7998 170 87.2998V83.2998V83.0998V79.0998C170 76.6998 168.2 74.7998 165.7 74.7998H161.7H161.5H157.5C155.1 74.7998 153.2 76.5998 153.2 79.0998C153.2 81.3998 155 83.2998 157.4 83.2998Z" fill="#ECEBE7"/>
<path d="M140.9 91.5C143.3 91.5 145.2 89.7 145.2 87.2V83.2V83V75V74.8V70.8C145.2 68.4 143.4 66.5 140.9 66.5C138.5 66.5 136.6 68.3 136.6 70.8V74.8V75V83V83.2V87.2C136.6 89.7 138.5 91.5 140.9 91.5Z" fill="#ECEBE7"/>
<path d="M190.5 91.4998H194.5H194.7H198.7C201.1 91.4998 203 89.6998 203 87.1998V83.1998H211H211.2H215.2C217.6 83.1998 219.5 81.3998 219.5 78.8998V74.8998H223.5C225.9 74.8998 227.8 73.0998 227.8 70.5998C227.8 68.1998 226 66.2998 223.5 66.2998H219.5H219.3H211.3H211.1H207.1C204.7 66.2998 202.8 68.0998 202.8 70.5998V74.5998H194.8V70.5998C194.8 68.1998 193 66.2998 190.5 66.2998C188.1 66.2998 186.2 68.0998 186.2 70.5998V74.5998V74.7998V82.7998V82.9998V86.9998C186.2 89.6998 188.1 91.4998 190.5 91.4998Z" fill="#ECEBE7"/>
<path d="M227.6 83H223.6C221.2 83 219.3 84.8 219.3 87.3C219.3 89.7 221.1 91.6 223.6 91.6H227.6H227.8H231.8C234.2 91.6 236.1 89.8 236.1 87.3C236.1 84.9 234.3 83 231.8 83H227.8H227.6Z" fill="#ECEBE7"/>
<path d="M231.8 99.5996C229.4 99.5996 227.5 101.5 227.5 103.9C227.5 106.3 229.4 108.2 231.8 108.2C234.2 108.2 236.1 106.3 236.1 103.9C236.1 101.5 234.2 99.5996 231.8 99.5996Z" fill="#ECEBE7"/>
<path d="M124.4 132.6C122 132.6 120.1 134.5 120.1 136.9C120.1 139.3 122 141.2 124.4 141.2C126.8 141.2 128.7 139.3 128.7 136.9C128.6 134.5 126.7 132.6 124.4 132.6Z" fill="#ECEBE7"/>
<path d="M306.2 132.6H302.2H302H294H293.8H289.8C287.4 132.6 285.5 134.4 285.5 136.9C285.5 139.4 287.3 141.2 289.8 141.2H293.8H294H302V145.2C302 147.6 303.8 149.5 306.3 149.5C308.7 149.5 310.6 147.7 310.6 145.2V141.2V141V137C310.5 134.5 308.7 132.6 306.2 132.6Z" fill="#ECEBE7"/>
<path d="M74.8 166C77.2 166 79.1 164.2 79.1 161.7V157.7V157.5V149.5V149.3V145.3C79.1 142.9 77.3 141 74.8 141C72.4 141 70.5 142.8 70.5 145.3V149.3V149.5V157.5V157.7V161.7C70.5 164.1 72.3 166 74.8 166Z" fill="#ECEBE7"/>
<path d="M190.5 165.7C188.1 165.7 186.2 167.6 186.2 170C186.2 172.4 188.1 174.3 190.5 174.3C192.9 174.3 194.8 172.4 194.8 170C194.8 167.6 192.9 165.7 190.5 165.7Z" fill="#ECEBE7"/>
<path d="M306.2 165.7H302.2V161.7C302.2 159.3 300.4 157.4 297.9 157.4C295.5 157.4 293.6 159.2 293.6 161.7V165.7H289.6C287.2 165.7 285.3 167.5 285.3 170C285.3 172.4 287.1 174.3 289.6 174.3H293.6V178.3C293.6 180.7 295.4 182.6 297.9 182.6H301.9H302.1H306.1C308.5 182.6 310.4 180.8 310.4 178.3V174.3V174.1V170.1C310.5 167.6 308.7 165.7 306.2 165.7Z" fill="#ECEBE7"/>
<path d="M277.4 174H277.2H273.2C270.8 174 268.9 175.8 268.9 178.3C268.9 180.7 270.7 182.6 273.2 182.6H277.2H277.4H281.4C283.8 182.6 285.7 180.8 285.7 178.3C285.7 175.9 283.9 174 281.4 174H277.4Z" fill="#ECEBE7"/>
<path d="M190.5 190.8C192.875 190.8 194.8 188.875 194.8 186.5C194.8 184.125 192.875 182.2 190.5 182.2C188.125 182.2 186.2 184.125 186.2 186.5C186.2 188.875 188.125 190.8 190.5 190.8Z" fill="#ECEBE7"/>
<path d="M306.2 190.5C303.8 190.5 301.9 192.3 301.9 194.8V198.8H293.9H293.7H285.7V194.8C285.7 192.4 283.9 190.5 281.4 190.5C279 190.5 277.1 192.3 277.1 194.8V198.8V199V207H273.1C270.7 207 268.8 208.8 268.8 211.3C268.8 213.7 270.6 215.6 273.1 215.6H277.1V223.6H269.1H268.9H260.9V215.6V215.4V211.4C260.9 209 259.1 207.1 256.6 207.1H252.6H252.4H244.4V199.1V198.9V190.9H252.4H252.6H256.6C259 190.9 260.9 189.1 260.9 186.6V182.6V182.4V178.4C260.9 176 259.1 174.1 256.6 174.1H252.6V170.1C252.6 167.7 250.8 165.8 248.3 165.8H244.3H244.1H240.1C237.7 165.8 235.8 167.6 235.8 170.1V174.1H227.8V166.1V165.9V161.9C227.8 159.5 226 157.6 223.5 157.6H219.5H219.3H211.3H211.1H207.1C204.7 157.6 202.8 159.4 202.8 161.9V165.9V166.1V170.1C202.8 172.5 204.6 174.4 207.1 174.4C209.5 174.4 211.4 172.6 211.4 170.1V166.1H219.4V174.1V174.3V182.3H215.4C213 182.3 211.1 184.1 211.1 186.6V190.6H207.1C204.7 190.6 202.8 192.4 202.8 194.9V198.9V199.1V207.1H194.8V203.1C194.8 200.7 193 198.8 190.5 198.8C188.1 198.8 186.2 200.6 186.2 203.1V207.1V207.3V215.3V215.5V223.5H182.2C179.8 223.5 177.9 225.3 177.9 227.8V231.8H173.9C171.5 231.8 169.6 233.6 169.6 236.1V240.1V240.3V244.3C169.6 246.7 171.4 248.6 173.9 248.6C176.3 248.6 178.2 246.8 178.2 244.3V240.3H182.2C184.6 240.3 186.5 238.5 186.5 236V232H194.5V236C194.5 238.4 196.3 240.3 198.8 240.3H202.8V244.3C202.8 246.7 204.6 248.6 207.1 248.6C209.5 248.6 211.4 246.8 211.4 244.3V240.3H219.4V244.3C219.4 246.7 221.2 248.6 223.7 248.6H227.7V256.6H219.7V252.6C219.7 250.2 217.9 248.3 215.4 248.3C213 248.3 211.1 250.1 211.1 252.6V256.6H207.1C204.7 256.6 202.8 258.4 202.8 260.9V264.9V265.1V269.1C202.8 271.5 204.6 273.4 207.1 273.4H211.1H211.3H215.3C217.7 273.4 219.6 271.6 219.6 269.1V265.1H227.6H227.8H235.8V273.1H231.8C229.4 273.1 227.5 274.9 227.5 277.4V281.4V281.6V285.6C227.5 288 229.3 289.9 231.8 289.9C234.2 289.9 236.1 288.1 236.1 285.6V281.6H240.1C242.5 281.6 244.4 279.8 244.4 277.3V273.3H252.4H252.6H260.6V277.3C260.6 279.7 262.4 281.6 264.9 281.6C267.3 281.6 269.2 279.8 269.2 277.3V273.3H277.2V281.3H273.2C270.8 281.3 268.9 283.1 268.9 285.6V289.6V289.8V297.8V298V302C268.9 304.4 270.7 306.3 273.2 306.3H277.2H277.4H285.4H285.6H289.6C292 306.3 293.9 304.5 293.9 302C293.9 299.6 292.1 297.7 289.6 297.7H285.6V289.7V289.5V281.5V273.5H293.6H293.8H297.8C300.2 273.5 302.1 271.7 302.1 269.2C302.1 266.8 300.3 264.9 297.8 264.9H293.8H293.6H285.6V260.9C285.6 258.5 283.8 256.6 281.3 256.6H277.3V248.6H281.3C283.7 248.6 285.6 246.8 285.6 244.3C285.6 241.9 283.8 240 281.3 240H277.3V232H281.3C283.7 232 285.6 230.2 285.6 227.7V223.7V223.5V215.5V215.3V207.3H293.6V211.3C293.6 213.7 295.4 215.6 297.9 215.6H301.9H302.1H306.1C308.5 215.6 310.4 213.8 310.4 211.3V207.3V207.1V199.1V198.9V194.9C310.5 192.4 308.7 190.5 306.2 190.5ZM252.4 215.6V223.6V223.8V231.8H244.4V223.8V223.6V215.6H252.4ZM235.8 182.5V190.5H227.8V182.5H235.8ZM211.3 231.8H211.1H203.1V223.8V223.6V215.6H207.1C209.5 215.6 211.4 213.8 211.4 211.3V207.3H219.4H219.6H223.6C226 207.3 227.9 205.5 227.9 203V199H235.9V207H231.9C229.5 207 227.6 208.8 227.6 211.3C227.6 213.7 229.4 215.6 231.9 215.6H235.9V223.6H231.9C229.5 223.6 227.6 225.4 227.6 227.9V231.9H219.6H219.4H211.3V231.8ZM252.6 264.9H252.4H244.4V256.9V256.7V248.7V248.5V240.5H252.4H252.6H260.6H260.8H268.8V248.5V248.7V256.7V256.9V264.9H260.8H260.6H252.6Z" fill="#ECEBE7"/>
<path d="M124.4 207.3C126.8 207.3 128.7 205.4 128.7 203C128.7 200.6 126.8 198.7 124.4 198.7C122 198.7 120.1 200.6 120.1 203C120.1 205.4 122 207.3 124.4 207.3Z" fill="#ECEBE7"/>
<path d="M174 215.6C176.4 215.6 178.3 213.8 178.3 211.3V207.3V207.1V199.1V198.9V194.9C178.3 192.5 176.5 190.6 174 190.6H170H169.8H165.8C163.4 190.6 161.5 192.4 161.5 194.9C161.5 197.3 163.3 199.2 165.8 199.2H169.8V207.2V207.4V211.4C169.7 213.7 171.6 215.6 174 215.6Z" fill="#ECEBE7"/>
<path d="M124.4 223.8C126.8 223.8 128.7 221.9 128.7 219.5C128.7 217.1 126.8 215.2 124.4 215.2C122 215.2 120.1 217.1 120.1 219.5C120.1 221.9 122 223.8 124.4 223.8Z" fill="#ECEBE7"/>
<path d="M116.1 223.6C113.7 223.6 111.8 225.5 111.8 227.9C111.8 230.3 113.7 232.2 116.1 232.2C118.5 232.2 120.4 230.3 120.4 227.9C120.4 225.5 118.4 223.6 116.1 223.6Z" fill="#ECEBE7"/>
<path d="M165.7 223.6C163.3 223.6 161.4 225.5 161.4 227.9C161.4 230.3 163.3 232.2 165.7 232.2C168.1 232.2 170 230.3 170 227.9C170 225.5 168 223.6 165.7 223.6Z" fill="#ECEBE7"/>
<path d="M306.2 223.6C303.8 223.6 301.9 225.5 301.9 227.9C301.9 230.3 303.8 232.2 306.2 232.2C308.6 232.2 310.5 230.3 310.5 227.9C310.5 225.5 308.6 223.6 306.2 223.6Z" fill="#ECEBE7"/>
<path d="M74.8 240.4C77.2 240.4 79.1 238.6 79.1 236.1V232.1V231.9V223.9V223.7V215.7H87.1V219.7C87.1 222.1 88.9 224 91.4 224C93.9 224 95.7 222.2 95.7 219.7V215.7H99.7C102.1 215.7 104 213.9 104 211.4V207.4V207.2V199.2V199V195C104 192.6 102.2 190.7 99.7 190.7H95.7H95.5H87.5V186.7C87.5 184.3 85.7 182.4 83.2 182.4H79.2H79H75C72.6 182.4 70.7 184.2 70.7 186.7C70.7 189.1 72.5 191 75 191H79V195C79 197.4 80.8 199.3 83.3 199.3H87.3V207.3H79.3H79.1H75.1C72.7 207.3 70.8 209.1 70.8 211.6V215.6V215.8V223.8V224V232V232.2V236.2C70.5 238.5 72.3 240.4 74.8 240.4Z" fill="#ECEBE7"/>
<path d="M124.4 231.8C122 231.8 120.1 233.7 120.1 236.1C120.1 238.5 122 240.4 124.4 240.4C126.8 240.4 128.7 238.5 128.7 236.1C128.7 233.7 126.7 231.8 124.4 231.8Z" fill="#ECEBE7"/>
<path d="M136.6 240.1V240.3V244.3C136.6 246.7 138.4 248.6 140.9 248.6H144.9H145.1H153.1H153.3H157.3C159.7 248.6 161.6 246.8 161.6 244.3C161.6 241.9 159.8 240 157.3 240H153.3V236C153.3 233.6 151.5 231.7 149 231.7H145V223.7V223.5V215.5V215.3V207.3H153V211.3C153 213.7 154.8 215.6 157.3 215.6C159.7 215.6 161.6 213.8 161.6 211.3V207.3V207.1V203.1C161.6 200.7 159.8 198.8 157.3 198.8H153.3V190.8V190.5V182.5V182.3V174.3H161.3H161.5H169.5V178.3C169.5 180.7 171.3 182.6 173.8 182.6C176.2 182.6 178.1 180.8 178.1 178.3V174.3V174.1V170.1C178.1 167.7 176.3 165.8 173.8 165.8H169.8V157.8H173.8C176.2 157.8 178.1 156 178.1 153.5C178.1 151.1 176.3 149.2 173.8 149.2H169.8H169.6H165.6C163.2 149.2 161.3 151 161.3 153.5V157.5H153.3V149.5H157.3C159.7 149.5 161.6 147.7 161.6 145.2C161.6 142.8 159.8 140.9 157.3 140.9H153.3H153.1H145.1V132.9H149.1C151.5 132.9 153.4 131.1 153.4 128.6C153.4 126.2 151.6 124.3 149.1 124.3H145.1V116.3H153.1V120.3C153.1 122.7 154.9 124.6 157.4 124.6C159.8 124.6 161.7 122.8 161.7 120.3V116.3H169.7V124.3H165.7C163.3 124.3 161.4 126.1 161.4 128.6V132.6V132.8V136.8C161.4 139.2 163.2 141.1 165.7 141.1H169.7H169.9H177.9V145.1C177.9 147.5 179.7 149.4 182.2 149.4H186.2V153.4C186.2 155.8 188 157.7 190.5 157.7H194.5H194.7H198.7C201.1 157.7 203 155.9 203 153.4C203 151 201.2 149.1 198.7 149.1H194.7V145.1C194.7 142.7 192.9 140.8 190.4 140.8H186.4V136.8C186.4 134.4 184.6 132.5 182.1 132.5H178.1V124.5V124.3V116.3H186.1V124.3V124.5V128.5C186.1 130.9 187.9 132.8 190.4 132.8H194.4V136.8C194.4 139.2 196.2 141.1 198.7 141.1C201.1 141.1 203 139.3 203 136.8V132.8H211H211.2H219.2H219.4H227.4H227.6H235.6V140.8H227.6H227.4H219.4H219.2H211.2H211H207C204.6 140.8 202.7 142.6 202.7 145.1C202.7 147.5 204.5 149.4 207 149.4H211H211.2H219.2H219.4H227.4H227.6H235.6V153.4C235.6 155.8 237.4 157.7 239.9 157.7C242.4 157.7 244.2 155.9 244.2 153.4V149.4H252.2V157.4V157.6V161.6C252.2 164 254 165.9 256.5 165.9H260.5H260.7H264.7C267.1 165.9 269 164.1 269 161.6C269 159.2 267.2 157.3 264.7 157.3H260.7V149.3H268.7H268.9H276.9V157.3V157.5V161.5C276.9 163.9 278.7 165.8 281.2 165.8C283.6 165.8 285.5 164 285.5 161.5V157.5V157.3V149.3V149.1V145.1C285.5 142.7 283.7 140.8 281.2 140.8H277.2H277H269V136.8C269 134.4 267.2 132.5 264.7 132.5H260.7H260.5H252.5H252.3H244.3V124.5V124.3V116.3V116.1V112.1C244.3 109.7 242.5 107.8 240 107.8C237.5 107.8 235.7 109.6 235.7 112.1V116.1V116.3V124.3H227.7V120.3C227.7 117.9 225.9 116 223.4 116C221 116 219.1 117.8 219.1 120.3V124.3H211.1V116.3H215.1C217.5 116.3 219.4 114.5 219.4 112V108V107.8V99.7998V99.5998V95.5998C219.4 93.1998 217.6 91.2998 215.1 91.2998C212.7 91.2998 210.8 93.0998 210.8 95.5998V99.5998V99.7998V107.8H202.8V103.8C202.8 101.4 201 99.4998 198.5 99.4998C196.1 99.4998 194.2 101.3 194.2 103.8V107.8H186.2H186H178V99.7998V99.5998V95.5998C178 93.1998 176.2 91.2998 173.7 91.2998C171.3 91.2998 169.4 93.0998 169.4 95.5998V99.5998H161.4H161.2H153.2V95.5998C153.2 93.1998 151.4 91.2998 148.9 91.2998C146.5 91.2998 144.6 93.0998 144.6 95.5998V99.5998V99.7998V107.8H140.6C138.2 107.8 136.3 109.6 136.3 112.1V116.1V116.3V124.3V124.5V132.5V132.7V140.7H132.3C129.9 140.7 128 142.5 128 145V149H120V145C120 142.6 118.2 140.7 115.7 140.7H111.7V136.7C111.7 134.3 109.9 132.4 107.4 132.4H103.4H103.2H95.2H95H91C88.6 132.4 86.7 134.2 86.7 136.7C86.7 139.2 88.5 141 91 141H95H95.2H103.2V149V149.2V157.2H95.2H95H91C88.6 157.2 86.7 159 86.7 161.5C86.7 163.9 88.5 165.8 91 165.8H95H95.2H103.2V173.8H99.2C96.8 173.8 94.9 175.6 94.9 178.1C94.9 180.5 96.7 182.4 99.2 182.4H103.2H103.4H111.4H111.6H115.6C118 182.4 119.9 180.6 119.9 178.1V174.1H127.9V182.1H123.9C121.5 182.1 119.6 183.9 119.6 186.4C119.6 188.8 121.4 190.7 123.9 190.7H127.9H128.1H136.1H136.3H144.3V198.7H140.3C137.9 198.7 136 200.5 136 203V207V207.2V215.2V215.4V223.4H132C129.6 223.4 127.7 225.2 127.7 227.7C127.7 230.1 129.5 232 132 232H136V240.1H136.6ZM194.8 116.4H202.8V124.4H194.8V116.4ZM120.4 165.7V157.7H128.4H128.6H132.6C135 157.7 136.9 155.9 136.9 153.4V149.4H144.9V157.4H140.9C138.5 157.4 136.6 159.2 136.6 161.7V165.7H128.6H128.4H120.4Z" fill="#ECEBE7"/>
<path d="M289.7 231.8C287.3 231.8 285.4 233.7 285.4 236.1C285.4 238.5 287.3 240.4 289.7 240.4C292.1 240.4 294 238.5 294 236.1C294 233.7 292.1 231.8 289.7 231.8Z" fill="#ECEBE7"/>
<path d="M306.2 240.1H302.2H302H298C295.6 240.1 293.7 241.9 293.7 244.4C293.7 246.8 295.5 248.7 298 248.7H302H302.2H306.2C308.6 248.7 310.5 246.9 310.5 244.4C310.5 242 308.7 240.1 306.2 240.1Z" fill="#ECEBE7"/>
<path d="M165.7 248.4C163.3 248.4 161.4 250.3 161.4 252.7C161.4 255.1 163.3 257 165.7 257C168.1 257 170 255.1 170 252.7C170 250.3 168 248.4 165.7 248.4Z" fill="#ECEBE7"/>
<path d="M182.2 256.9H186.2H186.4H194.4H194.6H198.6C201 256.9 202.9 255.1 202.9 252.6C202.9 250.2 201.1 248.3 198.6 248.3H194.6H194.5H186.5H186.3H182.3C179.9 248.3 178 250.1 178 252.6C178 255.1 179.8 256.9 182.2 256.9Z" fill="#ECEBE7"/>
<path d="M256.6 248.4C254.2 248.4 252.3 250.3 252.3 252.7C252.3 255.1 254.2 257 256.6 257C259 257 260.9 255.1 260.9 252.7C260.9 250.3 259 248.4 256.6 248.4Z" fill="#ECEBE7"/>
<path d="M174 256.6C171.6 256.6 169.7 258.4 169.7 260.9V264.9V265.1V269.1C169.7 271.5 171.5 273.4 174 273.4C176.4 273.4 178.3 271.6 178.3 269.1V265.1V264.9V260.9C178.2 258.5 176.4 256.6 174 256.6Z" fill="#ECEBE7"/>
<path d="M306.2 256.6C303.8 256.6 301.9 258.5 301.9 260.9C301.9 263.3 303.8 265.2 306.2 265.2C308.6 265.2 310.5 263.3 310.5 260.9C310.5 258.6 308.6 256.6 306.2 256.6Z" fill="#ECEBE7"/>
<path d="M145.2 281.7V281.5V273.5V273.3V269.3C145.2 266.9 143.4 265 140.9 265C138.5 265 136.6 266.8 136.6 269.3V273.3V273.5V281.5V281.7V285.7C136.6 288.1 138.4 290 140.9 290C143.3 290 145.2 288.2 145.2 285.7V281.7Z" fill="#ECEBE7"/>
<path d="M186.5 290H190.5C192.9 290 194.8 288.2 194.8 285.7V281.7V281.5V273.5V273.3V269.3C194.8 266.9 193 265 190.5 265C188.1 265 186.2 266.8 186.2 269.3V273.3H182.2C179.8 273.3 177.9 275.1 177.9 277.6V281.6V281.8V285.8C177.9 288.2 179.7 290.1 182.2 290.1H186.2H186.5V290Z" fill="#ECEBE7"/>
<path d="M256.6 281.5C254.2 281.5 252.3 283.3 252.3 285.8V289.8V290V298V298.2V302.2C252.3 304.6 254.1 306.5 256.6 306.5C259 306.5 260.9 304.7 260.9 302.2V298.2V298V290V289.8V285.8C260.9 283.3 259.1 281.5 256.6 281.5Z" fill="#ECEBE7"/>
<path d="M298 281.5C295.6 281.5 293.7 283.3 293.7 285.8V289.8V290V294C293.7 296.4 295.5 298.3 298 298.3C300.4 298.3 302.3 296.5 302.3 294V290V289.8V285.8C302.2 283.3 300.4 281.5 298 281.5Z" fill="#ECEBE7"/>
<path d="M174 289.7C171.6 289.7 169.7 291.5 169.7 294V298V298.2V302.2C169.7 304.6 171.5 306.5 174 306.5C176.4 306.5 178.3 304.7 178.3 302.2V298.2V298V294C178.2 291.6 176.4 289.7 174 289.7Z" fill="#ECEBE7"/>
<path d="M207 289.7C204.6 289.7 202.7 291.6 202.7 294C202.7 296.4 204.6 298.3 207 298.3C209.4 298.3 211.3 296.4 211.3 294C211.3 291.6 209.4 289.7 207 289.7Z" fill="#ECEBE7"/>
<path d="M240.1 298.3C242.475 298.3 244.4 296.375 244.4 294C244.4 291.625 242.475 289.7 240.1 289.7C237.725 289.7 235.8 291.625 235.8 294C235.8 296.375 237.725 298.3 240.1 298.3Z" fill="#ECEBE7"/>
<path d="M157.4 298H153.4H153.2H149.2C146.8 298 144.9 299.8 144.9 302.3C144.9 304.7 146.7 306.6 149.2 306.6H153.2H153.4H157.4C159.8 306.6 161.7 304.8 161.7 302.3C161.7 299.8 159.8 298 157.4 298Z" fill="#ECEBE7"/>
<path d="M198.8 298H194.8H194.5H190.5C188.1 298 186.2 299.8 186.2 302.3C186.2 304.7 188 306.6 190.5 306.6H194.5H194.7H198.7C201.1 306.6 203 304.8 203 302.3C203 299.8 201.2 298 198.8 298Z" fill="#ECEBE7"/>
<path d="M89.1 124.4H110.2C120.1 124.4 128.4 116.1 128.4 106.2V85.1C128.4 74.8 120.1 66.5 109.8 66.5H88.7C78.8 66.5 70.5 74.8 70.5 84.7V105.8C70.5 116.1 78.8 124.4 89.1 124.4ZM78.8 86.3C78.8 80.1 84.2 74.7 90.4 74.7H108.5C115.1 74.7 120.1 79.7 120.1 86.3V104.5C120.1 110.7 114.7 116.1 108.5 116.1H90.3C83.7 116.1 78.7 111.1 78.7 104.5V86.3H78.8Z" fill="#ECEBE7"/>
<path d="M271 124.4H292.1C302 124.4 310.3 116.1 310.3 106.2V85.1C310.3 74.8 302 66.5 291.7 66.5H270.6C260.7 66.5 252.4 74.8 252.4 84.7V105.8C252.4 116.1 260.6 124.4 271 124.4ZM260.6 86.3C260.6 80.1 266 74.7 272.2 74.7H290.4C297 74.7 302 79.7 302 86.3V104.5C302 110.7 296.6 116.1 290.4 116.1H272.2C265.6 116.1 260.6 111.1 260.6 104.5V86.3Z" fill="#ECEBE7"/>
<path d="M109.8 248.4H88.7C78.8 248.4 70.5 256.7 70.5 266.6V287.7C70.5 298 78.8 306.3 89.1 306.3H110.2C120.1 306.3 128.4 298 128.4 288.1V267C128.4 256.6 120.1 248.4 109.8 248.4ZM120.1 286.4C120.1 292.6 114.7 298 108.5 298H90.3C83.7 298 78.7 293 78.7 286.4V268.2C78.7 262 84.1 256.6 90.3 256.6H108.5C115.1 256.6 120.1 261.6 120.1 268.2V286.4Z" fill="#ECEBE7"/>
<path d="M94.1 107.8H104.8C108.5 107.8 111.8 104.5 111.8 101.2V90C111.8 85.9 108.9 83 105.2 83H94C90.3 83 87 86.3 87 90V100.7C87 104.9 89.9 107.8 94.1 107.8Z" fill="#ECEBE7"/>
<path d="M275.9 107.8H286.6C290.3 107.8 293.6 104.5 293.6 101.2V90C293.6 85.9 290.7 83 287 83H275.8C272.1 83 268.8 86.3 268.8 90V100.7C268.9 104.9 271.8 107.8 275.9 107.8Z" fill="#ECEBE7"/>
<path d="M105.2 264.9H94C90.3 264.9 87 268.2 87 271.9V282.6C87 286.7 89.9 289.6 94 289.6H104.7C108.4 289.6 111.7 286.3 111.7 283V271.8C111.8 267.8 108.9 264.9 105.2 264.9Z" fill="#ECEBE7"/>
</svg>
