<svg width="396" height="400" viewBox="0 0 396 400" fill="none" xmlns="http://www.w3.org/2000/svg">
<path fill-rule="evenodd" clip-rule="evenodd" d="M341.5 28C341.5 26.6193 342.619 25.5 344 25.5H362C370.008 25.5 376.5 31.9919 376.5 40V58C376.5 59.3807 375.381 60.5 374 60.5C372.619 60.5 371.5 59.3807 371.5 58V40C371.5 34.7533 367.247 30.5 362 30.5H344C342.619 30.5 341.5 29.3807 341.5 28Z" fill="#3D3B38"/>
<path fill-rule="evenodd" clip-rule="evenodd" d="M22 60.5C20.6193 60.5 19.5 59.3807 19.5 58L19.5 40C19.5 31.9919 25.9919 25.5 34 25.5L52 25.5C53.3807 25.5 54.5 26.6193 54.5 28C54.5 29.3807 53.3807 30.5 52 30.5L34 30.5C28.7533 30.5 24.5 34.7533 24.5 40L24.5 58C24.5 59.3807 23.3807 60.5 22 60.5Z" fill="#3D3B38"/>
<path fill-rule="evenodd" clip-rule="evenodd" d="M22 339.5C23.3807 339.5 24.5 340.619 24.5 342L24.5 360C24.5 365.247 28.7533 369.5 34 369.5H52C53.3807 369.5 54.5 370.619 54.5 372C54.5 373.381 53.3807 374.5 52 374.5H34C25.9919 374.5 19.5 368.008 19.5 360L19.5 342C19.5 340.619 20.6193 339.5 22 339.5ZM374 339.5C375.381 339.5 376.5 340.619 376.5 342V360C376.5 368.008 370.008 374.5 362 374.5L344 374.5C342.619 374.5 341.5 373.381 341.5 372C341.5 370.619 342.619 369.5 344 369.5L362 369.5C367.247 369.5 371.5 365.247 371.5 360V342C371.5 340.619 372.619 339.5 374 339.5Z" fill="#3D3B38"/>
<path d="M152.654 88.5153H144.138V84.2577C144.138 81.845 145.983 80 148.396 80C150.809 80 152.654 81.845 152.654 84.2577V88.5153Z" fill="#ECEBE7"/>
<path d="M181.465 88.5153C183.817 88.5153 185.723 86.6091 185.723 84.2577C185.723 81.9062 183.817 80 181.465 80C179.114 80 177.208 81.9062 177.208 84.2577C177.208 86.6091 179.114 88.5153 181.465 88.5153Z" fill="#ECEBE7"/>
<path d="M202.258 88.5153H193.742V84.2577C193.742 81.845 195.587 80 198 80C200.413 80 202.258 81.845 202.258 84.2577V88.5153Z" fill="#ECEBE7"/>
<path d="M218.792 88.5153H210.277V84.2577C210.277 81.845 212.122 80 214.535 80H218.792V88.5153Z" fill="#ECEBE7"/>
<path d="M227.06 80H218.544V88.5153H227.06V80Z" fill="#ECEBE7"/>
<path d="M231.069 88.5153H226.812V80H231.069C233.482 80 235.327 81.845 235.327 84.2577C235.327 86.6703 233.482 88.5153 231.069 88.5153Z" fill="#ECEBE7"/>
<path d="M152.654 88.2674H144.138V96.7827H152.654V88.2674Z" fill="#ECEBE7"/>
<path d="M169.188 96.7827H164.931C162.518 96.7827 160.673 94.9377 160.673 92.5251C160.673 90.1124 162.518 88.2674 164.931 88.2674H169.188V96.7827Z" fill="#ECEBE7"/>
<path d="M177.456 96.7827H168.94V88.2674H173.198C175.611 88.2674 177.456 90.1124 177.456 92.5251V96.7827Z" fill="#ECEBE7"/>
<path d="M202.258 88.2674H193.742V96.7827H202.258V88.2674Z" fill="#ECEBE7"/>
<path d="M210.525 88.2674H202.01V96.7827H210.525V88.2674Z" fill="#ECEBE7"/>
<path d="M218.792 88.2674H210.277V96.7827H218.792V88.2674Z" fill="#ECEBE7"/>
<path d="M222.802 96.7827H218.544V88.2674H227.06V92.5251C227.06 94.9377 225.215 96.7827 222.802 96.7827Z" fill="#ECEBE7"/>
<path d="M148.396 105.05C145.983 105.05 144.138 103.205 144.138 100.792V96.5346H152.654V100.792C152.654 103.205 150.809 105.05 148.396 105.05Z" fill="#ECEBE7"/>
<path d="M173.198 105.05C170.785 105.05 168.94 103.205 168.94 100.792V96.5346H177.456V100.792C177.456 103.205 175.611 105.05 173.198 105.05Z" fill="#ECEBE7"/>
<path d="M202.258 105.05H198C195.587 105.05 193.742 103.205 193.742 100.792V96.5346H202.258V105.05Z" fill="#ECEBE7"/>
<path d="M206.267 105.05H202.01V96.5346H210.525V100.792C210.525 103.205 208.68 105.05 206.267 105.05Z" fill="#ECEBE7"/>
<path d="M235.327 105.05H231.069C228.657 105.05 226.812 103.205 226.812 100.792C226.812 98.3796 228.657 96.5346 231.069 96.5346H235.327V105.05Z" fill="#ECEBE7"/>
<path d="M239.337 105.05H235.079V96.5346H239.337C241.749 96.5346 243.594 98.3796 243.594 100.792C243.594 103.205 241.749 105.05 239.337 105.05Z" fill="#ECEBE7"/>
<path d="M160.921 113.317H152.406V109.06C152.406 106.647 154.251 104.802 156.663 104.802C159.076 104.802 160.921 106.647 160.921 109.06V113.317Z" fill="#ECEBE7"/>
<path d="M185.723 113.317H177.208V109.06C177.208 106.647 179.053 104.802 181.465 104.802C183.878 104.802 185.723 106.647 185.723 109.06V113.317Z" fill="#ECEBE7"/>
<path d="M227.06 113.317H218.544V109.06C218.544 106.647 220.389 104.802 222.802 104.802C225.215 104.802 227.06 106.647 227.06 109.06V113.317Z" fill="#ECEBE7"/>
<path d="M160.921 113.069H152.406V121.584H160.921V113.069Z" fill="#ECEBE7"/>
<path d="M169.188 113.069H160.673V121.584H169.188V113.069Z" fill="#ECEBE7"/>
<path d="M177.456 113.069H168.94V121.584H177.456V113.069Z" fill="#ECEBE7"/>
<path d="M185.723 113.069H177.208V121.584H185.723V113.069Z" fill="#ECEBE7"/>
<path d="M210.525 121.584H202.01V117.327C202.01 114.914 203.855 113.069 206.267 113.069C208.68 113.069 210.525 114.914 210.525 117.327V121.584Z" fill="#ECEBE7"/>
<path d="M227.06 113.069H218.544V121.584H227.06V113.069Z" fill="#ECEBE7"/>
<path d="M239.337 121.584C241.688 121.584 243.594 119.678 243.594 117.327C243.594 114.975 241.688 113.069 239.337 113.069C236.985 113.069 235.079 114.975 235.079 117.327C235.079 119.678 236.985 121.584 239.337 121.584Z" fill="#ECEBE7"/>
<path d="M152.654 129.852H144.138V125.594C144.138 123.182 145.983 121.337 148.396 121.337H152.654V129.852Z" fill="#ECEBE7"/>
<path d="M160.921 121.337H152.406V129.852H160.921V121.337Z" fill="#ECEBE7"/>
<path d="M169.188 121.337H160.673V129.852H169.188V121.337Z" fill="#ECEBE7"/>
<path d="M177.456 121.337H168.94V129.852H177.456V121.337Z" fill="#ECEBE7"/>
<path d="M185.723 121.337H177.208V129.852H185.723V121.337Z" fill="#ECEBE7"/>
<path d="M193.99 121.337H185.475V129.852H193.99V121.337Z" fill="#ECEBE7"/>
<path d="M202.258 121.337H193.742V129.852H202.258V121.337Z" fill="#ECEBE7"/>
<path d="M210.525 121.337H202.01V129.852H210.525V121.337Z" fill="#ECEBE7"/>
<path d="M218.792 121.337H210.277V129.852H218.792V121.337Z" fill="#ECEBE7"/>
<path d="M222.802 129.852H218.544V121.337H227.06V125.594C227.06 128.007 225.215 129.852 222.802 129.852Z" fill="#ECEBE7"/>
<path d="M251.862 129.852H243.346V125.594C243.346 123.182 245.191 121.337 247.604 121.337C250.017 121.337 251.862 123.182 251.862 125.594V129.852Z" fill="#ECEBE7"/>
<path d="M152.654 129.604H144.138V138.119H152.654V129.604Z" fill="#ECEBE7"/>
<path d="M164.931 138.119C162.518 138.119 160.673 136.274 160.673 133.861V129.604H169.188V133.861C169.188 136.274 167.343 138.119 164.931 138.119Z" fill="#ECEBE7"/>
<path d="M185.723 129.604H177.208V138.119H185.723V129.604Z" fill="#ECEBE7"/>
<path d="M202.258 129.604H193.742V138.119H202.258V129.604Z" fill="#ECEBE7"/>
<path d="M218.792 129.604H210.277V138.119H218.792V129.604Z" fill="#ECEBE7"/>
<path d="M235.327 138.119H226.812V133.861C226.812 131.449 228.657 129.604 231.069 129.604C233.482 129.604 235.327 131.449 235.327 133.861V138.119Z" fill="#ECEBE7"/>
<path d="M251.862 129.604H243.346V138.119H251.862V129.604Z" fill="#ECEBE7"/>
<path d="M152.654 137.871H144.138V146.386H152.654V137.871Z" fill="#ECEBE7"/>
<path d="M156.663 146.386H152.406V137.871H156.663C159.076 137.871 160.921 139.716 160.921 142.129C160.921 144.541 159.076 146.386 156.663 146.386Z" fill="#ECEBE7"/>
<path d="M177.456 146.386H168.94V142.129C168.94 139.716 170.785 137.871 173.198 137.871H177.456V146.386Z" fill="#ECEBE7"/>
<path d="M185.723 137.871H177.208V146.386H185.723V137.871Z" fill="#ECEBE7"/>
<path d="M202.258 146.386H198C195.587 146.386 193.742 144.541 193.742 142.129V137.871H202.258V146.386Z" fill="#ECEBE7"/>
<path d="M210.525 137.871H202.01V146.386H210.525V137.871Z" fill="#ECEBE7"/>
<path d="M218.792 137.871H210.277V146.386H218.792V137.871Z" fill="#ECEBE7"/>
<path d="M227.06 137.871H218.544V146.386H227.06V137.871Z" fill="#ECEBE7"/>
<path d="M235.327 137.871H226.812V146.386H235.327V137.871Z" fill="#ECEBE7"/>
<path d="M243.594 137.871H235.079V146.386H243.594V137.871Z" fill="#ECEBE7"/>
<path d="M251.862 137.871H243.346V146.386H251.862V137.871Z" fill="#ECEBE7"/>
<path d="M103.05 154.654H98.7923C96.3796 154.654 94.5346 152.809 94.5346 150.396C94.5346 147.983 96.3796 146.138 98.7923 146.138H103.05V154.654Z" fill="#ECEBE7"/>
<path d="M111.317 146.138H102.802V154.654H111.317V146.138Z" fill="#ECEBE7"/>
<path d="M119.585 154.654H111.069V146.138H115.327C117.74 146.138 119.585 147.983 119.585 150.396V154.654Z" fill="#ECEBE7"/>
<path d="M131.862 154.654C134.213 154.654 136.119 152.748 136.119 150.396C136.119 148.045 134.213 146.138 131.862 146.138C129.51 146.138 127.604 148.045 127.604 150.396C127.604 152.748 129.51 154.654 131.862 154.654Z" fill="#ECEBE7"/>
<path d="M152.654 146.138H144.138V154.654H152.654V146.138Z" fill="#ECEBE7"/>
<path d="M177.456 154.654H173.198C170.785 154.654 168.94 152.809 168.94 150.396V146.138H177.456V154.654Z" fill="#ECEBE7"/>
<path d="M185.723 146.138H177.208V154.654H185.723V146.138Z" fill="#ECEBE7"/>
<path d="M193.99 154.654H185.475V146.138H189.733C192.145 146.138 193.99 147.983 193.99 150.396V154.654Z" fill="#ECEBE7"/>
<path d="M206.267 154.654C203.855 154.654 202.01 152.809 202.01 150.396V146.138H210.525V150.396C210.525 152.809 208.68 154.654 206.267 154.654Z" fill="#ECEBE7"/>
<path d="M251.862 146.138H243.346V154.654H251.862V146.138Z" fill="#ECEBE7"/>
<path d="M260.129 146.138H251.614V154.654H260.129V146.138Z" fill="#ECEBE7"/>
<path d="M268.396 146.138H259.881V154.654H268.396V146.138Z" fill="#ECEBE7"/>
<path d="M276.663 154.654H268.148V146.138H272.406C274.818 146.138 276.663 147.983 276.663 150.396V154.654Z" fill="#ECEBE7"/>
<path d="M301.465 154.654H297.208C294.795 154.654 292.95 152.809 292.95 150.396C292.95 147.983 294.795 146.138 297.208 146.138H301.465V154.654Z" fill="#ECEBE7"/>
<path d="M309.733 146.138H301.217V154.654H309.733V146.138Z" fill="#ECEBE7"/>
<path d="M318 154.654H309.485V146.138H313.742C316.155 146.138 318 147.983 318 150.396V154.654Z" fill="#ECEBE7"/>
<path d="M86.5153 162.921H78V158.663C78 156.251 79.845 154.406 82.2577 154.406C84.6703 154.406 86.5153 156.251 86.5153 158.663V162.921Z" fill="#ECEBE7"/>
<path d="M119.585 154.406H111.069V162.921H119.585V154.406Z" fill="#ECEBE7"/>
<path d="M127.852 162.921H119.337V154.406H123.594C126.007 154.406 127.852 156.251 127.852 158.663V162.921Z" fill="#ECEBE7"/>
<path d="M144.386 162.921H135.871V158.663C135.871 156.251 137.716 154.406 140.129 154.406H144.386V162.921Z" fill="#ECEBE7"/>
<path d="M152.654 154.406H144.138V162.921H152.654V154.406Z" fill="#ECEBE7"/>
<path d="M160.921 154.406H152.406V162.921H160.921V154.406Z" fill="#ECEBE7"/>
<path d="M164.931 162.921H160.673V154.406H164.931C167.343 154.406 169.188 156.251 169.188 158.663C169.188 161.076 167.343 162.921 164.931 162.921Z" fill="#ECEBE7"/>
<path d="M193.99 162.921H189.733C187.32 162.921 185.475 161.076 185.475 158.663V154.406H193.99V162.921Z" fill="#ECEBE7"/>
<path d="M202.258 162.921H193.742V154.406H198C200.413 154.406 202.258 156.251 202.258 158.663V162.921Z" fill="#ECEBE7"/>
<path d="M218.792 162.921H214.535C212.122 162.921 210.277 161.076 210.277 158.663C210.277 156.251 212.122 154.406 214.535 154.406H218.792V162.921Z" fill="#ECEBE7"/>
<path d="M227.06 154.406H218.544V162.921H227.06V154.406Z" fill="#ECEBE7"/>
<path d="M235.327 154.406H226.812V162.921H235.327V154.406Z" fill="#ECEBE7"/>
<path d="M243.594 154.406H235.079V162.921H243.594V154.406Z" fill="#ECEBE7"/>
<path d="M251.862 154.406H243.346V162.921H251.862V154.406Z" fill="#ECEBE7"/>
<path d="M260.129 154.406H251.614V162.921H260.129V154.406Z" fill="#ECEBE7"/>
<path d="M268.396 154.406H259.881V162.921H268.396V154.406Z" fill="#ECEBE7"/>
<path d="M276.663 154.406H268.148V162.921H276.663V154.406Z" fill="#ECEBE7"/>
<path d="M284.931 154.406H276.415V162.921H284.931V154.406Z" fill="#ECEBE7"/>
<path d="M293.198 162.921H284.683V154.406H288.94C291.353 154.406 293.198 156.251 293.198 158.663V162.921Z" fill="#ECEBE7"/>
<path d="M313.742 162.921C311.33 162.921 309.485 161.076 309.485 158.663V154.406H318V158.663C318 161.076 316.155 162.921 313.742 162.921Z" fill="#ECEBE7"/>
<path d="M86.5153 162.673H78V171.188H86.5153V162.673Z" fill="#ECEBE7"/>
<path d="M119.585 162.673H111.069V171.188H119.585V162.673Z" fill="#ECEBE7"/>
<path d="M127.852 162.673H119.337V171.188H127.852V162.673Z" fill="#ECEBE7"/>
<path d="M136.119 162.673H127.604V171.188H136.119V162.673Z" fill="#ECEBE7"/>
<path d="M140.129 171.188H135.871V162.673H144.386V166.931C144.386 169.343 142.541 171.188 140.129 171.188Z" fill="#ECEBE7"/>
<path d="M160.921 162.673H152.406V171.188H160.921V162.673Z" fill="#ECEBE7"/>
<path d="M177.456 171.188H168.94V166.931C168.94 164.518 170.785 162.673 173.198 162.673H177.456V171.188Z" fill="#ECEBE7"/>
<path d="M181.465 171.188H177.208V162.673H181.465C183.878 162.673 185.723 164.518 185.723 166.931C185.723 169.343 183.878 171.188 181.465 171.188Z" fill="#ECEBE7"/>
<path d="M202.258 171.188H198C195.587 171.188 193.742 169.343 193.742 166.931V162.673H202.258V171.188Z" fill="#ECEBE7"/>
<path d="M206.267 171.188H202.01V162.673H206.267C208.68 162.673 210.525 164.518 210.525 166.931C210.525 169.343 208.68 171.188 206.267 171.188Z" fill="#ECEBE7"/>
<path d="M247.604 171.188C245.191 171.188 243.346 169.343 243.346 166.931V162.673H251.862V166.931C251.862 169.343 250.017 171.188 247.604 171.188Z" fill="#ECEBE7"/>
<path d="M268.396 162.673H259.881V171.188H268.396V162.673Z" fill="#ECEBE7"/>
<path d="M293.198 162.673H284.683V171.188H293.198V162.673Z" fill="#ECEBE7"/>
<path d="M82.2577 179.456C79.845 179.456 78 177.611 78 175.198V170.94H86.5153V175.198C86.5153 177.611 84.6703 179.456 82.2577 179.456Z" fill="#ECEBE7"/>
<path d="M103.05 179.456H98.7923C96.3796 179.456 94.5346 177.611 94.5346 175.198C94.5346 172.785 96.3796 170.94 98.7923 170.94H103.05V179.456Z" fill="#ECEBE7"/>
<path d="M111.317 170.94H102.802V179.456H111.317V170.94Z" fill="#ECEBE7"/>
<path d="M119.585 170.94H111.069V179.456H119.585V170.94Z" fill="#ECEBE7"/>
<path d="M127.852 170.94H119.337V179.456H127.852V170.94Z" fill="#ECEBE7"/>
<path d="M152.654 179.456H144.138V175.198C144.138 172.785 145.983 170.94 148.396 170.94H152.654V179.456Z" fill="#ECEBE7"/>
<path d="M160.921 170.94H152.406V179.456H160.921V170.94Z" fill="#ECEBE7"/>
<path d="M169.188 170.94H160.673V179.456H169.188V170.94Z" fill="#ECEBE7"/>
<path d="M177.456 170.94H168.94V179.456H177.456V170.94Z" fill="#ECEBE7"/>
<path d="M218.792 179.456H210.277V175.198C210.277 172.785 212.122 170.94 214.535 170.94H218.792V179.456Z" fill="#ECEBE7"/>
<path d="M227.06 170.94H218.544V179.456H227.06V170.94Z" fill="#ECEBE7"/>
<path d="M235.327 179.456H226.812V170.94H231.069C233.482 170.94 235.327 172.785 235.327 175.198V179.456Z" fill="#ECEBE7"/>
<path d="M268.396 179.456H264.138C261.726 179.456 259.881 177.611 259.881 175.198V170.94H268.396V179.456Z" fill="#ECEBE7"/>
<path d="M272.406 179.456H268.148V170.94H272.406C274.818 170.94 276.663 172.785 276.663 175.198C276.663 177.611 274.818 179.456 272.406 179.456Z" fill="#ECEBE7"/>
<path d="M288.94 179.456C286.528 179.456 284.683 177.611 284.683 175.198V170.94H293.198V175.198C293.198 177.611 291.353 179.456 288.94 179.456Z" fill="#ECEBE7"/>
<path d="M309.733 179.456H301.217V175.198C301.217 172.785 303.062 170.94 305.475 170.94C307.888 170.94 309.733 172.785 309.733 175.198V179.456Z" fill="#ECEBE7"/>
<path d="M119.585 179.208H111.069V187.723H119.585V179.208Z" fill="#ECEBE7"/>
<path d="M127.852 179.208H119.337V187.723H127.852V179.208Z" fill="#ECEBE7"/>
<path d="M136.119 179.208H127.604V187.723H136.119V179.208Z" fill="#ECEBE7"/>
<path d="M144.386 179.208H135.871V187.723H144.386V179.208Z" fill="#ECEBE7"/>
<path d="M152.654 179.208H144.138V187.723H152.654V179.208Z" fill="#ECEBE7"/>
<path d="M160.921 179.208H152.406V187.723H160.921V179.208Z" fill="#ECEBE7"/>
<path d="M169.188 179.208H160.673V187.723H169.188V179.208Z" fill="#ECEBE7"/>
<path d="M177.456 179.208H168.94V187.723H177.456V179.208Z" fill="#ECEBE7"/>
<path d="M185.723 187.723H177.208V179.208H181.465C183.878 179.208 185.723 181.053 185.723 183.465V187.723Z" fill="#ECEBE7"/>
<path d="M198 187.723C200.351 187.723 202.258 185.817 202.258 183.465C202.258 181.114 200.351 179.208 198 179.208C195.649 179.208 193.742 181.114 193.742 183.465C193.742 185.817 195.649 187.723 198 187.723Z" fill="#ECEBE7"/>
<path d="M214.535 187.723C212.122 187.723 210.277 185.878 210.277 183.465V179.208H218.792V183.465C218.792 185.878 216.947 187.723 214.535 187.723Z" fill="#ECEBE7"/>
<path d="M235.327 179.208H226.812V187.723H235.327V179.208Z" fill="#ECEBE7"/>
<path d="M251.862 187.723H243.346V183.465C243.346 181.053 245.191 179.208 247.604 179.208H251.862V187.723Z" fill="#ECEBE7"/>
<path d="M260.129 187.723H251.614V179.208H255.871C258.284 179.208 260.129 181.053 260.129 183.465V187.723Z" fill="#ECEBE7"/>
<path d="M301.465 187.723H297.208C294.795 187.723 292.95 185.878 292.95 183.465C292.95 181.053 294.795 179.208 297.208 179.208H301.465V187.723Z" fill="#ECEBE7"/>
<path d="M309.733 179.208H301.217V187.723H309.733V179.208Z" fill="#ECEBE7"/>
<path d="M318 187.723H309.485V179.208H313.742C316.155 179.208 318 181.053 318 183.465V187.723Z" fill="#ECEBE7"/>
<path d="M111.317 195.99H107.06C104.647 195.99 102.802 194.145 102.802 191.733C102.802 189.32 104.647 187.475 107.06 187.475H111.317V195.99Z" fill="#ECEBE7"/>
<path d="M119.585 187.475H111.069V195.99H119.585V187.475Z" fill="#ECEBE7"/>
<path d="M123.594 195.99H119.337V187.475H127.852V191.733C127.852 194.145 126.007 195.99 123.594 195.99Z" fill="#ECEBE7"/>
<path d="M144.386 187.475H135.871V195.99H144.386V187.475Z" fill="#ECEBE7"/>
<path d="M152.654 187.475H144.138V195.99H152.654V187.475Z" fill="#ECEBE7"/>
<path d="M160.921 187.475H152.406V195.99H160.921V187.475Z" fill="#ECEBE7"/>
<path d="M181.465 195.99C179.053 195.99 177.208 194.145 177.208 191.733V187.475H185.723V191.733C185.723 194.145 183.878 195.99 181.465 195.99Z" fill="#ECEBE7"/>
<path d="M235.327 187.475H226.812V195.99H235.327V187.475Z" fill="#ECEBE7"/>
<path d="M243.594 187.475H235.079V195.99H243.594V187.475Z" fill="#ECEBE7"/>
<path d="M251.862 187.475H243.346V195.99H251.862V187.475Z" fill="#ECEBE7"/>
<path d="M260.129 187.475H251.614V195.99H260.129V187.475Z" fill="#ECEBE7"/>
<path d="M268.396 195.99H259.881V187.475H264.138C266.551 187.475 268.396 189.32 268.396 191.733V195.99Z" fill="#ECEBE7"/>
<path d="M284.931 195.99H280.673C278.26 195.99 276.415 194.145 276.415 191.733C276.415 189.32 278.26 187.475 280.673 187.475H284.931V195.99Z" fill="#ECEBE7"/>
<path d="M288.94 195.99H284.683V187.475H288.94C291.353 187.475 293.198 189.32 293.198 191.733C293.198 194.145 291.353 195.99 288.94 195.99Z" fill="#ECEBE7"/>
<path d="M309.733 195.99H305.475C303.062 195.99 301.217 194.145 301.217 191.733V187.475H309.733V195.99Z" fill="#ECEBE7"/>
<path d="M313.742 195.99H309.485V187.475H318V191.733C318 194.145 316.155 195.99 313.742 195.99Z" fill="#ECEBE7"/>
<path d="M86.5153 204.258H82.2577C79.845 204.258 78 202.413 78 200C78 197.587 79.845 195.742 82.2577 195.742H86.5153V204.258Z" fill="#ECEBE7"/>
<path d="M94.7826 204.258H86.2673V195.742H90.5249C92.9376 195.742 94.7826 197.587 94.7826 200V204.258Z" fill="#ECEBE7"/>
<path d="M136.119 204.258H131.862C129.449 204.258 127.604 202.413 127.604 200C127.604 197.587 129.449 195.742 131.862 195.742H136.119V204.258Z" fill="#ECEBE7"/>
<path d="M144.386 195.742H135.871V204.258H144.386V195.742Z" fill="#ECEBE7"/>
<path d="M152.654 195.742H144.138V204.258H152.654V195.742Z" fill="#ECEBE7"/>
<path d="M160.921 195.742H152.406V204.258H160.921V195.742Z" fill="#ECEBE7"/>
<path d="M198 204.258C200.351 204.258 202.258 202.352 202.258 200C202.258 197.649 200.351 195.742 198 195.742C195.649 195.742 193.742 197.649 193.742 200C193.742 202.352 195.649 204.258 198 204.258Z" fill="#ECEBE7"/>
<path d="M227.06 204.258H218.544V200C218.544 197.587 220.389 195.742 222.802 195.742H227.06V204.258Z" fill="#ECEBE7"/>
<path d="M235.327 195.742H226.812V204.258H235.327V195.742Z" fill="#ECEBE7"/>
<path d="M251.862 195.742H243.346V204.258H251.862V195.742Z" fill="#ECEBE7"/>
<path d="M260.129 195.742H251.614V204.258H260.129V195.742Z" fill="#ECEBE7"/>
<path d="M264.138 204.258H259.881V195.742H268.396V200C268.396 202.413 266.551 204.258 264.138 204.258Z" fill="#ECEBE7"/>
<path d="M94.7826 212.525H90.5249C88.1123 212.525 86.2673 210.68 86.2673 208.267V204.01H94.7826V212.525Z" fill="#ECEBE7"/>
<path d="M103.05 204.01H94.5346V212.525H103.05V204.01Z" fill="#ECEBE7"/>
<path d="M111.317 212.525H102.802V204.01H107.06C109.472 204.01 111.317 205.855 111.317 208.267V212.525Z" fill="#ECEBE7"/>
<path d="M160.921 204.01H152.406V212.525H160.921V204.01Z" fill="#ECEBE7"/>
<path d="M177.456 212.525H173.198C170.785 212.525 168.94 210.68 168.94 208.267C168.94 205.855 170.785 204.01 173.198 204.01H177.456V212.525Z" fill="#ECEBE7"/>
<path d="M185.723 212.525H177.208V204.01H181.465C183.878 204.01 185.723 205.855 185.723 208.267V212.525Z" fill="#ECEBE7"/>
<path d="M218.792 212.525H210.277V208.267C210.277 205.855 212.122 204.01 214.535 204.01H218.792V212.525Z" fill="#ECEBE7"/>
<path d="M227.06 204.01H218.544V212.525H227.06V204.01Z" fill="#ECEBE7"/>
<path d="M235.327 204.01H226.812V212.525H235.327V204.01Z" fill="#ECEBE7"/>
<path d="M243.594 204.01H235.079V212.525H243.594V204.01Z" fill="#ECEBE7"/>
<path d="M251.862 204.01H243.346V212.525H251.862V204.01Z" fill="#ECEBE7"/>
<path d="M293.198 212.525H284.683V208.267C284.683 205.855 286.528 204.01 288.94 204.01C291.353 204.01 293.198 205.855 293.198 208.267V212.525Z" fill="#ECEBE7"/>
<path d="M318 212.525H309.485V208.267C309.485 205.855 311.33 204.01 313.742 204.01C316.155 204.01 318 205.855 318 208.267V212.525Z" fill="#ECEBE7"/>
<path d="M103.05 212.277H94.5346V220.792H103.05V212.277Z" fill="#ECEBE7"/>
<path d="M111.317 212.277H102.802V220.792H111.317V212.277Z" fill="#ECEBE7"/>
<path d="M131.862 220.792C134.213 220.792 136.119 218.886 136.119 216.535C136.119 214.183 134.213 212.277 131.862 212.277C129.51 212.277 127.604 214.183 127.604 216.535C127.604 218.886 129.51 220.792 131.862 220.792Z" fill="#ECEBE7"/>
<path d="M152.654 220.792H144.138V216.535C144.138 214.122 145.983 212.277 148.396 212.277H152.654V220.792Z" fill="#ECEBE7"/>
<path d="M160.921 212.277H152.406V220.792H160.921V212.277Z" fill="#ECEBE7"/>
<path d="M169.188 220.792H160.673V212.277H164.931C167.343 212.277 169.188 214.122 169.188 216.535V220.792Z" fill="#ECEBE7"/>
<path d="M185.723 212.277H177.208V220.792H185.723V212.277Z" fill="#ECEBE7"/>
<path d="M202.258 220.792H193.742V216.535C193.742 214.122 195.587 212.277 198 212.277C200.413 212.277 202.258 214.122 202.258 216.535V220.792Z" fill="#ECEBE7"/>
<path d="M218.792 212.277H210.277V220.792H218.792V212.277Z" fill="#ECEBE7"/>
<path d="M227.06 212.277H218.544V220.792H227.06V212.277Z" fill="#ECEBE7"/>
<path d="M231.069 220.792H226.812V212.277H235.327V216.535C235.327 218.947 233.482 220.792 231.069 220.792Z" fill="#ECEBE7"/>
<path d="M251.862 212.277H243.346V220.792H251.862V212.277Z" fill="#ECEBE7"/>
<path d="M293.198 212.277H284.683V220.792H293.198V212.277Z" fill="#ECEBE7"/>
<path d="M301.465 212.277H292.95V220.792H301.465V212.277Z" fill="#ECEBE7"/>
<path d="M309.733 212.277H301.217V220.792H309.733V212.277Z" fill="#ECEBE7"/>
<path d="M318 212.277H309.485V220.792H318V212.277Z" fill="#ECEBE7"/>
<path d="M86.5153 229.06H78V224.802C78 222.389 79.845 220.544 82.2577 220.544H86.5153V229.06Z" fill="#ECEBE7"/>
<path d="M94.7826 220.544H86.2673V229.06H94.7826V220.544Z" fill="#ECEBE7"/>
<path d="M103.05 220.544H94.5346V229.06H103.05V220.544Z" fill="#ECEBE7"/>
<path d="M107.06 229.06H102.802V220.544H111.317V224.802C111.317 227.215 109.472 229.06 107.06 229.06Z" fill="#ECEBE7"/>
<path d="M152.654 220.544H144.138V229.06H152.654V220.544Z" fill="#ECEBE7"/>
<path d="M164.931 229.06C162.518 229.06 160.673 227.215 160.673 224.802V220.544H169.188V224.802C169.188 227.215 167.343 229.06 164.931 229.06Z" fill="#ECEBE7"/>
<path d="M181.465 229.06C179.053 229.06 177.208 227.215 177.208 224.802V220.544H185.723V224.802C185.723 227.215 183.878 229.06 181.465 229.06Z" fill="#ECEBE7"/>
<path d="M202.258 220.544H193.742V229.06H202.258V220.544Z" fill="#ECEBE7"/>
<path d="M210.525 220.544H202.01V229.06H210.525V220.544Z" fill="#ECEBE7"/>
<path d="M214.535 229.06H210.277V220.544H218.792V224.802C218.792 227.215 216.947 229.06 214.535 229.06Z" fill="#ECEBE7"/>
<path d="M243.594 229.06H239.337C236.924 229.06 235.079 227.215 235.079 224.802C235.079 222.389 236.924 220.544 239.337 220.544H243.594V229.06Z" fill="#ECEBE7"/>
<path d="M251.862 220.544H243.346V229.06H251.862V220.544Z" fill="#ECEBE7"/>
<path d="M260.129 220.544H251.614V229.06H260.129V220.544Z" fill="#ECEBE7"/>
<path d="M268.396 229.06H259.881V220.544H264.138C266.551 220.544 268.396 222.389 268.396 224.802V229.06Z" fill="#ECEBE7"/>
<path d="M284.931 229.06H280.673C278.26 229.06 276.415 227.215 276.415 224.802C276.415 222.389 278.26 220.544 280.673 220.544H284.931V229.06Z" fill="#ECEBE7"/>
<path d="M293.198 220.544H284.683V229.06H293.198V220.544Z" fill="#ECEBE7"/>
<path d="M309.733 229.06H305.475C303.062 229.06 301.217 227.215 301.217 224.802V220.544H309.733V229.06Z" fill="#ECEBE7"/>
<path d="M313.742 229.06H309.485V220.544H318V224.802C318 227.215 316.155 229.06 313.742 229.06Z" fill="#ECEBE7"/>
<path d="M86.5153 228.812H78V237.327H86.5153V228.812Z" fill="#ECEBE7"/>
<path d="M98.7923 237.327C96.3796 237.327 94.5346 235.482 94.5346 233.069V228.812H103.05V233.069C103.05 235.482 101.205 237.327 98.7923 237.327Z" fill="#ECEBE7"/>
<path d="M131.862 237.327C134.213 237.327 136.119 235.421 136.119 233.069C136.119 230.718 134.213 228.812 131.862 228.812C129.51 228.812 127.604 230.718 127.604 233.069C127.604 235.421 129.51 237.327 131.862 237.327Z" fill="#ECEBE7"/>
<path d="M152.654 228.812H144.138V237.327H152.654V228.812Z" fill="#ECEBE7"/>
<path d="M202.258 228.812H193.742V237.327H202.258V228.812Z" fill="#ECEBE7"/>
<path d="M210.525 228.812H202.01V237.327H210.525V228.812Z" fill="#ECEBE7"/>
<path d="M251.862 228.812H243.346V237.327H251.862V228.812Z" fill="#ECEBE7"/>
<path d="M268.396 228.812H259.881V237.327H268.396V228.812Z" fill="#ECEBE7"/>
<path d="M293.198 228.812H284.683V237.327H293.198V228.812Z" fill="#ECEBE7"/>
<path d="M86.5153 237.079H78V245.594H86.5153V237.079Z" fill="#ECEBE7"/>
<path d="M123.594 245.594C125.946 245.594 127.852 243.688 127.852 241.337C127.852 238.985 125.946 237.079 123.594 237.079C121.243 237.079 119.337 238.985 119.337 241.337C119.337 243.688 121.243 245.594 123.594 245.594Z" fill="#ECEBE7"/>
<path d="M144.386 245.594H140.129C137.716 245.594 135.871 243.749 135.871 241.337C135.871 238.924 137.716 237.079 140.129 237.079H144.386V245.594Z" fill="#ECEBE7"/>
<path d="M152.654 237.079H144.138V245.594H152.654V237.079Z" fill="#ECEBE7"/>
<path d="M173.198 245.594C175.549 245.594 177.456 243.688 177.456 241.337C177.456 238.985 175.549 237.079 173.198 237.079C170.847 237.079 168.94 238.985 168.94 241.337C168.94 243.688 170.847 245.594 173.198 245.594Z" fill="#ECEBE7"/>
<path d="M193.99 245.594H185.475V241.337C185.475 238.924 187.32 237.079 189.733 237.079H193.99V245.594Z" fill="#ECEBE7"/>
<path d="M202.258 237.079H193.742V245.594H202.258V237.079Z" fill="#ECEBE7"/>
<path d="M210.525 237.079H202.01V245.594H210.525V237.079Z" fill="#ECEBE7"/>
<path d="M243.594 245.594H235.079V241.337C235.079 238.924 236.924 237.079 239.337 237.079H243.594V245.594Z" fill="#ECEBE7"/>
<path d="M251.862 237.079H243.346V245.594H251.862V237.079Z" fill="#ECEBE7"/>
<path d="M268.396 237.079H259.881V245.594H268.396V237.079Z" fill="#ECEBE7"/>
<path d="M276.663 237.079H268.148V245.594H276.663V237.079Z" fill="#ECEBE7"/>
<path d="M284.931 237.079H276.415V245.594H284.931V237.079Z" fill="#ECEBE7"/>
<path d="M288.94 245.594H284.683V237.079H293.198V241.337C293.198 243.749 291.353 245.594 288.94 245.594Z" fill="#ECEBE7"/>
<path d="M313.742 245.594C316.094 245.594 318 243.688 318 241.337C318 238.985 316.094 237.079 313.742 237.079C311.391 237.079 309.485 238.985 309.485 241.337C309.485 243.688 311.391 245.594 313.742 245.594Z" fill="#ECEBE7"/>
<path d="M82.2577 253.862C79.845 253.862 78 252.017 78 249.604V245.346H86.5153V249.604C86.5153 252.017 84.6703 253.862 82.2577 253.862Z" fill="#ECEBE7"/>
<path d="M131.862 253.862C134.213 253.862 136.119 251.955 136.119 249.604C136.119 247.253 134.213 245.346 131.862 245.346C129.51 245.346 127.604 247.253 127.604 249.604C127.604 251.955 129.51 253.862 131.862 253.862Z" fill="#ECEBE7"/>
<path d="M152.654 245.346H144.138V253.862H152.654V245.346Z" fill="#ECEBE7"/>
<path d="M160.921 253.862H152.406V245.346H156.663C159.076 245.346 160.921 247.191 160.921 249.604V253.862Z" fill="#ECEBE7"/>
<path d="M185.723 253.862H177.208V249.604C177.208 247.191 179.053 245.346 181.465 245.346H185.723V253.862Z" fill="#ECEBE7"/>
<path d="M189.733 253.862H185.475V245.346H193.99V249.604C193.99 252.017 192.145 253.862 189.733 253.862Z" fill="#ECEBE7"/>
<path d="M210.525 253.862H206.267C203.855 253.862 202.01 252.017 202.01 249.604V245.346H210.525V253.862Z" fill="#ECEBE7"/>
<path d="M218.792 245.346H210.277V253.862H218.792V245.346Z" fill="#ECEBE7"/>
<path d="M227.06 245.346H218.544V253.862H227.06V245.346Z" fill="#ECEBE7"/>
<path d="M235.327 245.346H226.812V253.862H235.327V245.346Z" fill="#ECEBE7"/>
<path d="M243.594 245.346H235.079V253.862H243.594V245.346Z" fill="#ECEBE7"/>
<path d="M251.862 245.346H243.346V253.862H251.862V245.346Z" fill="#ECEBE7"/>
<path d="M260.129 245.346H251.614V253.862H260.129V245.346Z" fill="#ECEBE7"/>
<path d="M268.396 245.346H259.881V253.862H268.396V245.346Z" fill="#ECEBE7"/>
<path d="M276.663 245.346H268.148V253.862H276.663V245.346Z" fill="#ECEBE7"/>
<path d="M284.931 245.346H276.415V253.862H284.931V245.346Z" fill="#ECEBE7"/>
<path d="M297.208 253.862C299.559 253.862 301.465 251.955 301.465 249.604C301.465 247.253 299.559 245.346 297.208 245.346C294.856 245.346 292.95 247.253 292.95 249.604C292.95 251.955 294.856 253.862 297.208 253.862Z" fill="#ECEBE7"/>
<path d="M152.654 262.129H148.396C145.983 262.129 144.138 260.284 144.138 257.871V253.613H152.654V262.129Z" fill="#ECEBE7"/>
<path d="M160.921 253.613H152.406V262.129H160.921V253.613Z" fill="#ECEBE7"/>
<path d="M164.931 262.129H160.673V253.613H164.931C167.343 253.613 169.188 255.458 169.188 257.871C169.188 260.284 167.343 262.129 164.931 262.129Z" fill="#ECEBE7"/>
<path d="M181.465 262.129C179.053 262.129 177.208 260.284 177.208 257.871V253.613H185.723V257.871C185.723 260.284 183.878 262.129 181.465 262.129Z" fill="#ECEBE7"/>
<path d="M214.535 262.129C212.122 262.129 210.277 260.284 210.277 257.871V253.613H218.792V257.871C218.792 260.284 216.947 262.129 214.535 262.129Z" fill="#ECEBE7"/>
<path d="M235.327 262.129H231.069C228.657 262.129 226.812 260.284 226.812 257.871V253.613H235.327V262.129Z" fill="#ECEBE7"/>
<path d="M243.594 253.613H235.079V262.129H243.594V253.613Z" fill="#ECEBE7"/>
<path d="M251.862 253.613H243.346V262.129H251.862V253.613Z" fill="#ECEBE7"/>
<path d="M284.931 253.613H276.415V262.129H284.931V253.613Z" fill="#ECEBE7"/>
<path d="M288.94 262.129H284.683V253.613H288.94C291.353 253.613 293.198 255.458 293.198 257.871C293.198 260.284 291.353 262.129 288.94 262.129Z" fill="#ECEBE7"/>
<path d="M309.733 262.129H305.475C303.062 262.129 301.217 260.284 301.217 257.871C301.217 255.458 303.062 253.613 305.475 253.613H309.733V262.129Z" fill="#ECEBE7"/>
<path d="M313.742 262.129H309.485V253.613H313.742C316.155 253.613 318 255.458 318 257.871C318 260.284 316.155 262.129 313.742 262.129Z" fill="#ECEBE7"/>
<path d="M173.198 270.396C175.549 270.396 177.456 268.49 177.456 266.139C177.456 263.787 175.549 261.881 173.198 261.881C170.847 261.881 168.94 263.787 168.94 266.139C168.94 268.49 170.847 270.396 173.198 270.396Z" fill="#ECEBE7"/>
<path d="M193.99 270.396H189.733C187.32 270.396 185.475 268.551 185.475 266.139C185.475 263.726 187.32 261.881 189.733 261.881H193.99V270.396Z" fill="#ECEBE7"/>
<path d="M202.258 261.881H193.742V270.396H202.258V261.881Z" fill="#ECEBE7"/>
<path d="M206.267 270.396H202.01V261.881H206.267C208.68 261.881 210.525 263.726 210.525 266.139C210.525 268.551 208.68 270.396 206.267 270.396Z" fill="#ECEBE7"/>
<path d="M227.06 270.396H218.544V266.139C218.544 263.726 220.389 261.881 222.802 261.881C225.215 261.881 227.06 263.726 227.06 266.139V270.396Z" fill="#ECEBE7"/>
<path d="M243.594 261.881H235.079V270.396H243.594V261.881Z" fill="#ECEBE7"/>
<path d="M251.862 261.881H243.346V270.396H251.862V261.881Z" fill="#ECEBE7"/>
<path d="M264.138 270.396C266.49 270.396 268.396 268.49 268.396 266.139C268.396 263.787 266.49 261.881 264.138 261.881C261.787 261.881 259.881 263.787 259.881 266.139C259.881 268.49 261.787 270.396 264.138 270.396Z" fill="#ECEBE7"/>
<path d="M284.931 261.881H276.415V270.396H284.931V261.881Z" fill="#ECEBE7"/>
<path d="M185.723 278.663H177.208V274.406C177.208 271.993 179.053 270.148 181.465 270.148C183.878 270.148 185.723 271.993 185.723 274.406V278.663Z" fill="#ECEBE7"/>
<path d="M218.792 278.663H210.277V274.406C210.277 271.993 212.122 270.148 214.535 270.148H218.792V278.663Z" fill="#ECEBE7"/>
<path d="M227.06 270.148H218.544V278.663H227.06V270.148Z" fill="#ECEBE7"/>
<path d="M235.327 270.148H226.812V278.663H235.327V270.148Z" fill="#ECEBE7"/>
<path d="M243.594 270.148H235.079V278.663H243.594V270.148Z" fill="#ECEBE7"/>
<path d="M251.862 270.148H243.346V278.663H251.862V270.148Z" fill="#ECEBE7"/>
<path d="M284.931 270.148H276.415V278.663H284.931V270.148Z" fill="#ECEBE7"/>
<path d="M293.198 278.663H284.683V270.148H288.94C291.353 270.148 293.198 271.993 293.198 274.406V278.663Z" fill="#ECEBE7"/>
<path d="M313.742 278.663C316.094 278.663 318 276.757 318 274.406C318 272.054 316.094 270.148 313.742 270.148C311.391 270.148 309.485 272.054 309.485 274.406C309.485 276.757 311.391 278.663 313.742 278.663Z" fill="#ECEBE7"/>
<path d="M152.654 286.931H144.138V282.673C144.138 280.26 145.983 278.415 148.396 278.415C150.809 278.415 152.654 280.26 152.654 282.673V286.931Z" fill="#ECEBE7"/>
<path d="M181.465 286.931C179.053 286.931 177.208 285.086 177.208 282.673V278.415H185.723V282.673C185.723 285.086 183.878 286.931 181.465 286.931Z" fill="#ECEBE7"/>
<path d="M202.258 286.931H193.742V282.673C193.742 280.26 195.587 278.415 198 278.415C200.413 278.415 202.258 280.26 202.258 282.673V286.931Z" fill="#ECEBE7"/>
<path d="M218.792 286.931H214.535C212.122 286.931 210.277 285.086 210.277 282.673V278.415H218.792V286.931Z" fill="#ECEBE7"/>
<path d="M222.802 286.931H218.544V278.415H227.06V282.673C227.06 285.086 225.215 286.931 222.802 286.931Z" fill="#ECEBE7"/>
<path d="M251.862 278.415H243.346V286.931H251.862V278.415Z" fill="#ECEBE7"/>
<path d="M260.129 278.415H251.614V286.931H260.129V278.415Z" fill="#ECEBE7"/>
<path d="M268.396 278.415H259.881V286.931H268.396V278.415Z" fill="#ECEBE7"/>
<path d="M276.663 278.415H268.148V286.931H276.663V278.415Z" fill="#ECEBE7"/>
<path d="M284.931 278.415H276.415V286.931H284.931V278.415Z" fill="#ECEBE7"/>
<path d="M293.198 278.415H284.683V286.931H293.198V278.415Z" fill="#ECEBE7"/>
<path d="M301.465 278.415H292.95V286.931H301.465V278.415Z" fill="#ECEBE7"/>
<path d="M305.475 286.931H301.217V278.415H305.475C307.888 278.415 309.733 280.26 309.733 282.673C309.733 285.086 307.888 286.931 305.475 286.931Z" fill="#ECEBE7"/>
<path d="M152.654 286.683H144.138V295.198H152.654V286.683Z" fill="#ECEBE7"/>
<path d="M193.99 295.198H185.475V290.94C185.475 288.528 187.32 286.683 189.733 286.683H193.99V295.198Z" fill="#ECEBE7"/>
<path d="M202.258 286.683H193.742V295.198H202.258V286.683Z" fill="#ECEBE7"/>
<path d="M243.594 295.198H235.079V290.94C235.079 288.528 236.924 286.683 239.337 286.683H243.594V295.198Z" fill="#ECEBE7"/>
<path d="M247.604 295.198H243.346V286.683H251.862V290.94C251.862 293.353 250.017 295.198 247.604 295.198Z" fill="#ECEBE7"/>
<path d="M272.406 295.198C269.993 295.198 268.148 293.353 268.148 290.94V286.683H276.663V290.94C276.663 293.353 274.818 295.198 272.406 295.198Z" fill="#ECEBE7"/>
<path d="M293.198 286.683H284.683V295.198H293.198V286.683Z" fill="#ECEBE7"/>
<path d="M148.396 303.465C145.983 303.465 144.138 301.62 144.138 299.208V294.95H152.654V299.208C152.654 301.62 150.809 303.465 148.396 303.465Z" fill="#ECEBE7"/>
<path d="M193.99 303.465H189.733C187.32 303.465 185.475 301.62 185.475 299.208V294.95H193.99V303.465Z" fill="#ECEBE7"/>
<path d="M198 303.465H193.742V294.95H202.258V299.208C202.258 301.62 200.413 303.465 198 303.465Z" fill="#ECEBE7"/>
<path d="M239.337 303.465C236.924 303.465 235.079 301.62 235.079 299.208V294.95H243.594V299.208C243.594 301.62 241.749 303.465 239.337 303.465Z" fill="#ECEBE7"/>
<path d="M268.396 303.465H259.881V299.208C259.881 296.795 261.726 294.95 264.138 294.95C266.551 294.95 268.396 296.795 268.396 299.208V303.465Z" fill="#ECEBE7"/>
<path d="M284.931 303.465H276.415V299.208C276.415 296.795 278.26 294.95 280.673 294.95H284.931V303.465Z" fill="#ECEBE7"/>
<path d="M293.198 294.95H284.683V303.465H293.198V294.95Z" fill="#ECEBE7"/>
<path d="M309.733 303.465H301.217V299.208C301.217 296.795 303.062 294.95 305.475 294.95C307.888 294.95 309.733 296.795 309.733 299.208V303.465Z" fill="#ECEBE7"/>
<path d="M185.723 311.733H177.208V307.475C177.208 305.062 179.053 303.217 181.465 303.217C183.878 303.217 185.723 305.062 185.723 307.475V311.733Z" fill="#ECEBE7"/>
<path d="M214.535 311.733C216.886 311.733 218.792 309.827 218.792 307.475C218.792 305.124 216.886 303.217 214.535 303.217C212.183 303.217 210.277 305.124 210.277 307.475C210.277 309.827 212.183 311.733 214.535 311.733Z" fill="#ECEBE7"/>
<path d="M247.604 311.733C249.955 311.733 251.862 309.827 251.862 307.475C251.862 305.124 249.955 303.217 247.604 303.217C245.252 303.217 243.346 305.124 243.346 307.475C243.346 309.827 245.252 311.733 247.604 311.733Z" fill="#ECEBE7"/>
<path d="M268.396 303.217H259.881V311.733H268.396V303.217Z" fill="#ECEBE7"/>
<path d="M284.931 303.217H276.415V311.733H284.931V303.217Z" fill="#ECEBE7"/>
<path d="M293.198 303.217H284.683V311.733H293.198V303.217Z" fill="#ECEBE7"/>
<path d="M305.475 311.733C303.062 311.733 301.217 309.888 301.217 307.475V303.217H309.733V307.475C309.733 309.888 307.888 311.733 305.475 311.733Z" fill="#ECEBE7"/>
<path d="M160.921 320H156.663C154.251 320 152.406 318.155 152.406 315.742C152.406 313.33 154.251 311.485 156.663 311.485H160.921V320Z" fill="#ECEBE7"/>
<path d="M164.931 320H160.673V311.485H164.931C167.343 311.485 169.188 313.33 169.188 315.742C169.188 318.155 167.343 320 164.931 320Z" fill="#ECEBE7"/>
<path d="M181.465 320C179.053 320 177.208 318.155 177.208 315.742V311.485H185.723V315.742C185.723 318.155 183.878 320 181.465 320Z" fill="#ECEBE7"/>
<path d="M202.258 320H198C195.587 320 193.742 318.155 193.742 315.742C193.742 313.33 195.587 311.485 198 311.485H202.258V320Z" fill="#ECEBE7"/>
<path d="M206.267 320H202.01V311.485H206.267C208.68 311.485 210.525 313.33 210.525 315.742C210.525 318.155 208.68 320 206.267 320Z" fill="#ECEBE7"/>
<path d="M264.138 320C261.726 320 259.881 318.155 259.881 315.742V311.485H268.396V315.742C268.396 318.155 266.551 320 264.138 320Z" fill="#ECEBE7"/>
<path d="M284.931 320H280.673C278.26 320 276.415 318.155 276.415 315.742V311.485H284.931V320Z" fill="#ECEBE7"/>
<path d="M293.198 311.485H284.683V320H293.198V311.485Z" fill="#ECEBE7"/>
<path d="M297.208 320H292.95V311.485H297.208C299.62 311.485 301.465 313.33 301.465 315.742C301.465 318.155 299.62 320 297.208 320Z" fill="#ECEBE7"/>
<path d="M96.6014 137.871H117.683C127.604 137.871 135.871 129.604 135.871 119.683V98.6014C135.871 88.2673 127.604 80 117.27 80H96.1881C86.2673 80 78 88.2673 78 98.1881V119.27C78 129.604 86.2673 137.871 96.6014 137.871ZM127.604 99.8415V118.03C127.604 124.23 122.23 129.604 116.03 129.604H97.8415C91.2277 129.604 86.2673 124.643 86.2673 118.03V99.8415C86.2673 93.6411 91.6411 88.2673 97.8415 88.2673H116.03C122.643 88.2673 127.604 93.2277 127.604 99.8415Z" fill="#ECEBE7"/>
<path d="M278.482 137.871H299.564C309.485 137.871 317.752 129.604 317.752 119.683V98.6014C317.752 88.2673 309.485 80 299.151 80H278.069C268.148 80 259.881 88.2673 259.881 98.1881V119.27C259.881 129.604 268.148 137.871 278.482 137.871ZM309.485 99.8415V118.03C309.485 124.23 304.111 129.604 297.91 129.604H279.722C273.109 129.604 268.148 124.643 268.148 118.03V99.8415C268.148 93.6411 273.522 88.2673 279.722 88.2673H297.91C304.524 88.2673 309.485 93.2277 309.485 99.8415Z" fill="#ECEBE7"/>
<path d="M96.6014 319.752H117.683C127.604 319.752 135.871 311.485 135.871 301.564V280.482C135.871 270.148 127.604 261.881 117.27 261.881H96.1881C86.2673 261.881 78 270.148 78 280.069V301.151C78 311.485 86.2673 319.752 96.6014 319.752ZM127.604 281.722V299.911C127.604 306.111 122.23 311.485 116.03 311.485H97.8415C91.2277 311.485 86.2673 306.524 86.2673 299.911V281.722C86.2673 275.522 91.6411 270.148 97.8415 270.148H116.03C122.643 270.148 127.604 275.109 127.604 281.722Z" fill="#ECEBE7"/>
<path d="M119.337 103.562V114.723C119.337 118.03 116.03 121.336 112.309 121.336H101.562C97.4282 121.336 94.5346 118.443 94.5346 114.309V103.562C94.5346 99.8415 97.8415 96.5346 101.562 96.5346H112.723C116.443 96.5346 119.337 99.4281 119.337 103.562Z" fill="#ECEBE7"/>
<path d="M301.217 103.562V114.723C301.217 118.03 297.91 121.336 294.19 121.336H283.443C279.309 121.336 276.415 118.443 276.415 114.309V103.562C276.415 99.8415 279.722 96.5346 283.443 96.5346H294.604C298.324 96.5346 301.217 99.4281 301.217 103.562Z" fill="#ECEBE7"/>
<path d="M119.337 285.443V296.604C119.337 299.91 116.03 303.217 112.309 303.217H101.562C97.4282 303.217 94.5346 300.324 94.5346 296.19V285.443C94.5346 281.722 97.8415 278.415 101.562 278.415H112.723C116.443 278.415 119.337 281.309 119.337 285.443Z" fill="#ECEBE7"/>
</svg>
