<svg width="170" height="170" viewBox="0 0 170 170" fill="none" xmlns="http://www.w3.org/2000/svg">
<path d="M85.2516 167.5C130.539 167.5 167.252 130.787 167.252 85.5C167.252 40.2127 130.539 3.5 85.2516 3.5C39.9642 3.5 3.25159 40.2127 3.25159 85.5C3.25159 130.787 39.9642 167.5 85.2516 167.5Z" fill="#F00500" stroke="#3F0100" stroke-width="3"/>
<circle cx="85.2516" cy="85.5" r="79.5" stroke="#750200" stroke-width="2"/>
<path d="M111.232 42.871C108.344 45.7561 105.698 48.8831 103.346 52.2173L102.602 51.9755C98.3136 50.5761 93.8692 49.7123 89.3903 49.4186C88.0414 49.315 83.0091 49.315 81.3662 49.4186C76.403 49.7469 72.5985 50.4897 68.2752 51.9927C68.1023 52.0618 67.9466 52.1137 67.791 52.1655C65.3526 48.8485 62.6376 45.7388 59.6459 42.8883C73.9993 35.546 90.791 34.665 105.819 40.4524C107.427 41.0571 109.001 41.7654 110.54 42.5255L111.232 42.871Z" fill="#F00500"/>
<path d="M138.002 108.399C135.823 114.601 132.554 120.354 128.317 125.364C126.017 128.059 123.475 130.529 120.743 132.775C114.344 137.923 106.874 141.603 98.9016 143.538C90.082 145.663 80.882 145.663 72.0624 143.538C64.073 141.603 56.6196 137.923 50.2211 132.775C47.4887 130.529 44.9466 128.059 42.6466 125.364C30.4548 110.973 26.7541 91.209 32.9624 73.3975C34.1383 70.0978 35.6082 66.919 37.3722 63.8958C38.1849 62.5137 39.188 60.9588 39.6722 60.3196C41.3323 67.4546 43.3729 73.7258 44.1338 75.9889C44.0819 76.1098 44.0128 76.2481 43.9436 76.369C39.9143 84.5232 37.7353 92.3838 37.2165 100.745C37.2165 100.849 37.1992 100.97 37.1992 101.074C37.0609 103.579 37.13 104.771 37.5451 106.343C38.8421 111.266 42.8368 116.691 49.097 122.012C59.3519 130.719 73.2557 137.008 83.7873 137.733C94.7685 138.476 110.972 132.067 121.763 122.703C123.458 121.2 125.049 119.611 126.536 117.918C127.608 116.674 129.199 114.532 129.078 114.532C129.044 114.532 129.078 114.497 129.148 114.462C129.199 114.428 129.251 114.376 129.217 114.342C129.199 114.324 129.234 114.272 129.286 114.255C129.338 114.238 129.372 114.203 129.355 114.169C129.338 114.134 129.355 114.1 129.424 114.082C129.476 114.065 129.493 114.013 129.476 113.979C129.459 113.944 129.476 113.91 129.511 113.91C129.545 113.91 129.58 113.858 129.58 113.823C129.58 113.789 129.614 113.737 129.649 113.737C129.684 113.737 129.718 113.702 129.718 113.668C129.77 113.53 129.857 113.391 129.943 113.27C130.202 112.873 131.24 111.025 131.378 110.714C132.364 108.485 132.987 106.498 133.281 104.511C133.419 103.561 133.505 101.816 133.436 101.402C133.419 101.333 133.419 101.212 133.402 101.022C133.367 100.676 133.35 100.158 133.315 99.6397C133.281 98.8623 133.211 97.7739 133.16 97.2383C132.416 89.395 130.41 82.9857 126.605 76.1962C126.45 75.9371 126.311 75.6779 126.225 75.4706C126.19 75.4188 126.173 75.367 126.156 75.3324C126.692 73.7258 128.888 67.0054 130.635 59.3176L130.669 59.3522L130.929 59.6977C131.378 60.3024 132.572 62.0991 133.108 62.9629C135.546 66.9363 137.448 71.2035 138.797 75.6607C141.927 86.389 141.668 97.8257 138.002 108.399Z" fill="#F00500"/>
<path d="M115.555 87.7539C115.503 88.0303 114.69 88.8595 113.878 89.4642C111.491 91.2091 107.22 92.833 102.879 93.6104C100.406 94.0596 97.9332 94.1287 97.1896 93.7659C96.7054 93.524 96.6362 93.334 96.8091 92.7121C97.1723 91.4164 98.3482 89.9998 100.181 88.6695C101.115 87.9957 104.902 85.698 106.666 84.7306C109.572 83.1412 111.923 82.191 113.514 81.9664C114.016 81.8973 114.621 81.8801 114.811 81.9664C115.123 82.0874 115.469 83.003 115.607 84.1087C115.676 84.696 115.641 87.2874 115.555 87.7539Z" fill="black"/>
<path d="M74.8121 93.4723C74.7083 93.6796 74.1895 93.9042 73.6015 93.9905C73.0136 94.0769 71.2151 94.0251 70.1948 93.9042C66.5286 93.4204 62.6376 92.2975 59.8015 90.9154C58.2105 90.138 57.0692 89.3606 56.2218 88.5141L55.7376 88.0131L55.6857 87.3566C55.5993 86.2164 55.6166 84.4197 55.7549 83.7805C55.8414 83.2449 56.0316 82.7266 56.291 82.2602C56.4293 82.0874 56.4293 82.0874 57.0519 82.0874C57.8128 82.0874 58.4526 82.2083 59.4902 82.5366C61.6173 83.1931 64.782 84.7824 68.6384 87.0974C71.8203 88.9978 73.0136 89.9307 73.9301 91.2091C74.5527 92.0038 74.9677 93.1267 74.8121 93.4723Z" fill="black"/>
<path d="M99.2993 117.52C99.2993 117.572 99.0918 118.401 98.8324 119.386C98.573 120.371 98.3655 121.165 98.3655 121.2C98.1753 121.217 98.0023 121.235 97.8121 121.217H97.2587L96.4978 123.014C96.0828 123.999 95.7023 124.914 95.6504 125.053L95.5467 125.294L95.1835 124.707L94.8204 124.12V119.334L94.682 119.369C94.388 119.438 92.2956 119.714 91.379 119.801C87.5918 120.181 83.7873 120.094 80.0173 119.559C79.4121 119.472 78.8933 119.403 78.876 119.421C78.8587 119.438 78.876 120.543 78.9106 121.908L78.9624 124.361L78.6685 124.811C78.5128 125.053 78.3572 125.26 78.3572 125.277C78.3053 125.329 78.1324 125.053 77.7346 124.258C77.3023 123.429 76.991 122.548 76.7662 121.632L76.6451 121.131L76.1091 121.165L75.573 121.217L75.4346 120.578C75.3654 120.233 75.279 119.697 75.2444 119.403L75.1925 118.85L74.7429 118.453C74.4835 118.229 74.2241 118.004 74.1722 117.969C74.0857 117.9 74.0511 117.779 74.0511 117.676V117.468L76.2128 117.486L78.3745 117.503L78.4436 117.728L78.5128 117.952L79.2564 117.987C79.6715 118.004 80.9858 118.038 82.1617 118.073L84.3234 118.125L84.8768 117.261L85.4474 116.397H86.1737L86.1564 114.601L86.1391 112.804L85.188 112.389C82.1271 111.042 80.3286 109.504 79.6542 107.638C79.5158 107.258 79.5158 107.12 79.4812 105.392C79.4639 103.682 79.4639 103.527 79.585 103.147C79.8271 102.283 80.5015 101.609 81.3662 101.384C81.6602 101.298 82.4384 101.298 86.5196 101.298L91.3271 101.315L91.8632 101.575C92.5031 101.885 92.7971 102.11 93.1602 102.594C93.5752 103.147 93.6963 103.579 93.6963 104.632C93.6963 106.135 93.5926 107.431 93.4369 107.949C93.2121 108.658 92.8662 109.331 92.4339 109.936C91.5692 111.042 89.9955 112.147 88.5602 112.648L88.1452 112.804L88.1625 114.618L88.1798 116.432L88.5602 116.466L88.9407 116.501L89.4595 117.278L89.961 118.056H92.2783C93.558 118.056 94.682 118.073 94.7858 118.09C94.9587 118.125 94.9933 118.108 95.1662 117.814L95.3738 117.503H97.3625C98.8497 117.434 99.2993 117.468 99.2993 117.52Z" fill="black"/>
<path d="M90.1685 122.478C89.84 122.669 89.6152 122.755 89.5633 122.72C89.5114 122.703 89.2693 122.496 89.0099 122.306L88.543 121.926L88.0587 122.444C87.0039 123.584 86.9693 123.636 86.658 123.653C86.1738 123.705 86.07 123.619 85.4821 122.738C85.1708 122.288 84.9287 121.908 84.9287 121.908C84.9287 121.908 84.7039 121.874 84.4445 121.857L83.9603 121.805L83.7354 122.271L83.5106 122.738L83.1129 122.617C82.8016 122.513 82.4903 122.392 82.1963 122.254L81.6776 121.995V121.01L86.2776 121.027L90.8776 121.045L90.8948 121.511C90.9121 122.064 90.9294 122.047 90.1685 122.478Z" fill="black"/>
<path d="M133.402 101.402C133.384 101.333 133.384 101.212 133.367 101.022C129.217 100.573 117.371 100.296 106.372 109.366C106.372 109.366 102.827 93.1267 86.2256 93.1267C69.6241 93.1267 63.4677 109.366 63.4677 109.366C54.1639 99.3633 41.7128 100.089 37.2165 100.745C37.2165 100.849 37.1992 100.97 37.1992 101.074C37.0609 103.579 37.13 104.771 37.5451 106.343C38.8421 111.266 42.8368 116.691 49.097 122.012C59.3519 130.719 73.2557 137.008 83.7873 137.733C94.7685 138.476 110.972 132.067 121.763 122.703C123.458 121.2 125.049 119.611 126.536 117.918C127.608 116.674 129.199 114.532 129.078 114.532C129.044 114.532 129.078 114.497 129.148 114.463C129.199 114.428 129.251 114.376 129.217 114.342C129.199 114.324 129.234 114.272 129.286 114.255C129.338 114.238 129.372 114.203 129.355 114.169C129.338 114.134 129.355 114.1 129.424 114.082C129.476 114.065 129.493 114.013 129.476 113.979C129.459 113.944 129.476 113.91 129.511 113.91C129.545 113.91 129.58 113.858 129.58 113.823C129.58 113.789 129.614 113.737 129.649 113.737C129.684 113.737 129.718 113.702 129.718 113.668C129.77 113.53 129.857 113.391 129.943 113.27C130.202 112.873 131.24 111.025 131.378 110.714C132.364 108.485 132.987 106.498 133.281 104.512C133.384 103.561 133.471 101.817 133.402 101.402ZM90.1685 122.479C89.8399 122.669 89.6151 122.755 89.5632 122.72C89.5114 122.703 89.2692 122.496 89.0098 122.306L88.5429 121.926L88.0587 122.444C87.0038 123.584 86.9692 123.636 86.658 123.653C86.1738 123.705 86.07 123.619 85.482 122.738C85.1708 122.289 84.9286 121.908 84.9286 121.908C84.9286 121.908 84.7038 121.874 84.4444 121.857L83.9602 121.805L83.7354 122.271L83.5106 122.738L83.1128 122.617C82.8016 122.513 82.4903 122.392 82.1963 122.254L81.6775 121.995V121.01L86.2775 121.027L90.8775 121.045L90.8948 121.511C90.9121 122.064 90.9294 122.047 90.1685 122.479ZM98.8151 119.369C98.5557 120.354 98.3482 121.148 98.3482 121.183C98.158 121.2 97.9851 121.217 97.7948 121.2H97.2415L96.4978 123.014C96.0828 123.999 95.7023 124.914 95.6505 125.053L95.5467 125.295L95.1836 124.707L94.8204 124.12V119.334L94.682 119.369C94.3881 119.438 92.2956 119.714 91.379 119.801C87.5918 120.181 83.7873 120.094 80.0173 119.559C79.4121 119.473 78.8933 119.403 78.876 119.421C78.8587 119.438 78.876 120.544 78.9106 121.908L78.9625 124.362L78.6685 124.811C78.5128 125.053 78.3572 125.26 78.3572 125.277C78.3053 125.329 78.1324 125.053 77.7346 124.258C77.3023 123.429 76.991 122.548 76.7662 121.632L76.6452 121.131L76.1091 121.166L75.573 121.217L75.4346 120.578C75.3655 120.233 75.279 119.697 75.2444 119.403L75.1925 118.851L74.7429 118.453C74.4835 118.229 74.2241 118.004 74.1722 117.97C74.0858 117.9 74.0512 117.779 74.0512 117.676V117.469L76.2128 117.486L78.3745 117.503L78.4437 117.728L78.5128 117.952L79.2565 117.987C79.6715 118.004 80.9858 118.039 82.1617 118.073L84.3234 118.125L84.8768 117.261L85.4474 116.397H86.1738L86.1565 114.601L86.1392 112.804L85.188 112.389C82.1271 111.042 80.3286 109.504 79.6542 107.639C79.5158 107.258 79.5158 107.12 79.4813 105.393C79.464 103.682 79.464 103.527 79.585 103.147C79.8271 102.283 80.5016 101.609 81.3662 101.385C81.6602 101.298 82.4384 101.298 86.5196 101.298L91.3271 101.316L91.8632 101.575C92.5031 101.886 92.7971 102.11 93.1602 102.594C93.5753 103.147 93.6963 103.579 93.6963 104.632C93.6963 106.135 93.5926 107.431 93.4369 107.949C93.2121 108.658 92.8663 109.332 92.4339 109.936C91.5693 111.042 89.9956 112.148 88.5602 112.649L88.1452 112.804L88.1625 114.618L88.1798 116.432L88.5602 116.467L88.9407 116.501L89.4595 117.278L89.961 118.056H92.2783C93.558 118.056 94.682 118.073 94.7858 118.09C94.9587 118.125 94.9933 118.108 95.1663 117.814L95.3738 117.503H97.3625C98.9016 117.503 99.3512 117.52 99.3512 117.572C99.2993 117.555 99.0745 118.401 98.8151 119.369Z" fill="white"/>
<path d="M133.263 99.6398C133.229 98.8624 133.16 97.774 133.108 97.2384C132.364 89.3951 130.358 82.9858 126.553 76.1963C126.398 75.9372 126.259 75.678 126.173 75.4707C126.138 75.4189 126.121 75.3671 126.104 75.3325C126.64 73.7259 128.836 67.0055 130.583 59.3177C132.952 48.8831 134.457 36.6862 129.857 33.0237C129.857 33.0237 121.902 32.4364 111.249 42.871C108.361 45.7561 105.715 48.8831 103.363 52.2173L102.62 51.9754C98.3309 50.5761 93.8865 49.7123 89.4076 49.4186C88.0587 49.315 83.0263 49.315 81.3835 49.4186C76.4203 49.7469 72.6158 50.4897 68.2925 51.9927C68.1195 52.0618 67.9639 52.1137 67.8083 52.1655C65.3699 48.8485 62.6549 45.7388 59.6631 42.8883C48.5781 32.4018 40.3293 33.0065 40.3293 33.0065C35.4526 36.7899 37.1127 49.5395 39.6375 60.3197C41.2977 67.4547 43.3383 73.7259 44.0992 75.989C44.0473 76.1099 43.9781 76.2481 43.909 76.3691C39.8796 84.5233 37.7007 92.3839 37.1819 100.745C41.6954 100.089 54.1293 99.3461 63.4504 109.366C63.4504 109.366 69.6068 93.1267 86.2083 93.1267C102.81 93.1267 106.355 109.366 106.355 109.366C117.353 100.296 129.199 100.59 133.35 101.022C133.332 100.676 133.298 100.158 133.263 99.6398ZM47.3676 69.476C47.3676 69.476 40.8999 53.323 42.5601 44.0976C42.8368 42.5428 43.3556 41.178 44.1684 40.1414C44.1684 40.1414 51.5007 40.867 63.3293 53.9967C63.3293 53.9967 61.0812 55.0851 58.0722 57.4001C58.0722 57.4001 58.0549 57.4174 58.0376 57.4174C54.7691 59.9224 50.5842 63.8958 47.3676 69.476ZM74.812 93.4723C74.7083 93.6796 74.1895 93.9042 73.6015 93.9905C73.0135 94.0769 71.215 94.0251 70.1947 93.9042C66.5286 93.4204 62.6376 92.2975 59.8015 90.9154C58.2105 90.138 57.0691 89.3606 56.2218 88.5141L55.7376 88.0131L55.6857 87.3566C55.5992 86.2164 55.6165 84.4197 55.7549 83.7805C55.8413 83.2449 56.0315 82.7266 56.2909 82.2602C56.4293 82.0874 56.4293 82.0874 57.0519 82.0874C57.8128 82.0874 58.4526 82.2083 59.4902 82.5366C61.6173 83.1931 64.7819 84.7825 68.6383 87.0974C71.8203 88.9978 73.0135 89.9307 73.9301 91.2091C74.5526 92.0038 74.9677 93.1267 74.812 93.4723ZM115.555 87.7539C115.503 88.0303 114.69 88.8596 113.878 89.4642C111.491 91.2091 107.22 92.833 102.879 93.6105C100.406 94.0596 97.9331 94.1287 97.1895 93.766C96.7053 93.5241 96.6361 93.334 96.8091 92.7121C97.1722 91.4164 98.3482 89.9998 100.181 88.6695C101.115 87.9958 104.902 85.6981 106.666 84.7306C109.572 83.1412 111.923 82.1911 113.514 81.9665C114.016 81.8974 114.621 81.8801 114.811 81.9665C115.123 82.0874 115.469 83.003 115.607 84.1087C115.676 84.6961 115.641 87.2875 115.555 87.7539ZM112.684 57.4001L112.65 57.3828C109.744 55.0678 107.565 53.9795 107.565 53.9795C118.996 40.8497 126.069 40.1242 126.069 40.1242C126.847 41.178 127.349 42.5255 127.626 44.0803C129.234 53.3057 122.991 69.476 122.991 69.476C120.38 64.8287 116.869 60.7171 112.684 57.4001Z" fill="#FFA409"/>
<path d="M127.643 44.0805C126.294 43.9077 119.913 43.8731 112.684 57.4002L112.65 57.3829C109.745 55.068 107.566 53.9796 107.566 53.9796C118.996 40.8499 126.069 40.1243 126.069 40.1243C126.865 41.1781 127.366 42.5256 127.643 44.0805Z" fill="#FF9300"/>
<path d="M123.008 69.4759C120.38 64.8113 116.887 60.717 112.684 57.4C119.913 43.8729 126.277 43.9075 127.643 44.0802C129.251 53.3228 123.008 69.4759 123.008 69.4759Z" fill="#FF8300"/>
<path d="M127.902 44.1328C127.816 44.1153 127.73 44.0978 127.643 44.0803L127.902 44.1328Z" fill="#FF8300"/>
<path d="M63.3293 53.9796C63.3293 53.9796 61.0812 55.068 58.0722 57.3829C58.0722 57.3829 58.0549 57.4002 58.0376 57.4002C50.5496 43.8559 43.9609 43.9077 42.5428 44.0805C42.8195 42.5256 43.3383 41.1608 44.1511 40.1243C44.1684 40.1243 51.5007 40.8499 63.3293 53.9796Z" fill="#FF9300"/>
<path d="M58.055 57.4C54.7693 59.9223 50.5843 63.8784 47.3678 69.4759C47.3678 69.4759 40.9001 53.3228 42.5602 44.0802C43.961 43.9075 50.567 43.8729 58.055 57.4Z" fill="#FF8300"/>
<path d="M42.5601 44.0803C42.4737 44.0978 42.3699 44.1153 42.2834 44.1328L42.5601 44.0803Z" fill="#FF8300"/>
<path d="M105.508 78.4421C105.508 78.4421 99.9738 78.7876 100.665 74.4686C101.357 70.1496 105.681 69.6314 106.891 69.8041C108.102 69.9769 112.944 71.7045 112.079 75.3324C111.214 78.9604 110.004 78.2693 109.312 78.4421C108.62 78.6148 105.508 78.4421 105.508 78.4421Z" fill="white"/>
<path d="M64.6955 78.4421C64.6955 78.4421 59.1616 78.7876 59.8534 74.4686C60.5451 70.1496 64.8684 69.6314 66.0789 69.8041C67.2895 69.9769 72.1316 71.7045 71.2669 75.3324C70.4023 78.9604 69.1917 78.2693 68.5 78.4421C67.8083 78.6148 64.6955 78.4421 64.6955 78.4421Z" fill="white"/>
</svg>
