<svg width="60" height="60" viewBox="0 0 60 60" fill="none" xmlns="http://www.w3.org/2000/svg">
<rect width="60" height="60" rx="30" fill="#3D96FF"/>
<path d="M19.323 28.6369C19.323 28.6369 30.0873 23.9972 33.8205 22.3634C35.2516 21.7099 40.1049 19.6187 40.1049 19.6187C40.1049 19.6187 42.3449 18.7039 42.1582 20.9257C42.0959 21.8406 41.5982 25.0427 41.1004 28.5062C40.3537 33.4074 39.5449 38.766 39.5449 38.766C39.5449 38.766 39.4204 40.2691 38.3627 40.5305C37.3049 40.7919 35.5627 39.6156 35.2516 39.3542C35.0027 39.1582 30.585 36.2174 28.9673 34.7797C28.5317 34.3877 28.0339 33.6035 29.0294 32.6886C31.2694 30.5321 33.9449 27.8528 35.5627 26.1537C36.3094 25.3695 37.056 23.5397 33.9449 25.7615C29.5273 28.9637 25.1718 31.9697 25.1718 31.9697C25.1718 31.9697 24.1762 32.6232 22.3096 32.035C20.4429 31.447 18.2651 30.6627 18.2651 30.6627C18.2651 30.6627 16.7719 29.6825 19.323 28.6369Z" fill="white"/>
</svg>
