<svg width="17" height="16" viewBox="0 0 17 16" fill="none" xmlns="http://www.w3.org/2000/svg">
<g clip-path="url(#clip0_266_23)">
<path d="M3.51465 7.55187C3.51467 7.46303 3.53332 7.37506 3.56957 7.29302C3.60581 7.21098 3.6589 7.13649 3.72581 7.07381C3.79273 7.01113 3.87214 6.96152 3.95948 6.92782C4.04682 6.89411 4.14038 6.87697 4.23478 6.87738L5.42869 6.88105C5.61904 6.88105 5.80161 6.95222 5.93622 7.07891C6.07083 7.2056 6.14645 7.37743 6.14645 7.55659V11.8058C6.28091 11.7683 6.453 11.7283 6.64237 11.6863C6.77357 11.6572 6.89049 11.5873 6.97418 11.4879C7.05787 11.3885 7.10344 11.2654 7.10346 11.1385V5.86807C7.10346 5.68889 7.17907 5.51705 7.31368 5.39035C7.44829 5.26363 7.63085 5.19243 7.82123 5.19239H9.01875C9.20912 5.19243 9.39169 5.26363 9.52628 5.39035C9.66089 5.51705 9.73651 5.68889 9.73651 5.86807V10.7599C9.73651 10.7599 10.0361 10.6458 10.3278 10.5298C10.4361 10.4867 10.5286 10.4145 10.5936 10.3222C10.6587 10.2299 10.6934 10.1216 10.6935 10.0109V4.17915C10.6935 4.00001 10.7691 3.82821 10.9037 3.70152C11.0383 3.57483 11.2208 3.50365 11.4112 3.50361H12.6074C12.7977 3.50379 12.98 3.57503 13.1145 3.7017C13.249 3.82838 13.3245 4.0001 13.3245 4.17915V8.98138C14.3617 8.27397 15.4127 7.42308 16.2468 6.4C16.3678 6.2515 16.4479 6.07711 16.48 5.89239C16.5119 5.70767 16.4949 5.51837 16.4302 5.34138C16.0441 4.2959 15.4303 3.33777 14.6282 2.52834C13.8261 1.71891 12.8533 1.07598 11.772 0.640712C10.6907 0.205441 9.52479 -0.0125937 8.34885 0.000561766C7.17291 0.0137172 6.01283 0.257773 4.94286 0.717111C3.87288 1.17645 2.91657 1.84096 2.13512 2.6681C1.35367 3.49525 0.764287 4.46683 0.404688 5.52067C0.0450888 6.57449 -0.0768064 7.68738 0.0468016 8.7881C0.17041 9.88881 0.536799 10.9531 1.12252 11.9129C1.22457 12.0785 1.3747 12.2132 1.55529 12.3013C1.73587 12.3893 1.93939 12.427 2.14197 12.41C2.36827 12.3912 2.65002 12.3647 2.985 12.3277C3.13079 12.3121 3.26539 12.2466 3.36316 12.1436C3.46094 12.0406 3.51506 11.9074 3.51521 11.7693V7.55187" fill="#5B5B5B"/>
<path d="M3.48906 14.3664C4.75001 15.2298 6.24016 15.7481 7.79463 15.8637C9.34908 15.9796 10.9073 15.6883 12.2968 15.0223C13.6863 14.3563 14.853 13.3415 15.6677 12.0902C16.4825 10.8389 16.9136 9.39981 16.9133 7.93222C16.9133 7.74861 16.9043 7.56789 16.8913 7.3877C13.803 11.7228 8.1008 13.7494 3.48906 14.3664Z" fill="#5B5B5B"/>
</g>
<defs>
<clipPath id="clip0_266_23">
<rect width="17" height="16" fill="white"/>
</clipPath>
</defs>
</svg>
